<mxfile host="Electron" modified="2024-01-25T10:20:10.601Z" agent="Mozilla/5.0 (Macintosh; Intel Mac OS X 10_15_7) AppleWebKit/537.36 (KHTML, like Gecko) draw.io/22.1.21 Chrome/120.0.6099.109 Electron/28.1.0 Safari/537.36" etag="u39tZwp-57ugLsS9gb7g" version="22.1.21" type="device">
  <diagram id="C5RBs43oDa-KdzZeNtuy" name="Page-1">
    <mxGraphModel dx="6149" dy="3370" grid="1" gridSize="10" guides="1" tooltips="1" connect="1" arrows="1" fold="1" page="1" pageScale="1" pageWidth="827" pageHeight="1169" math="0" shadow="0">
      <root>
        <mxCell id="WIyWlLk6GJQsqaUBKTNV-0" />
        <mxCell id="WIyWlLk6GJQsqaUBKTNV-1" parent="WIyWlLk6GJQsqaUBKTNV-0" />
        <mxCell id="NqXv0ei1hqFi60krSDiM-1" style="edgeStyle=orthogonalEdgeStyle;rounded=0;orthogonalLoop=1;jettySize=auto;html=1;exitX=0.5;exitY=1;exitDx=0;exitDy=0;sketch=1;curveFitting=1;jiggle=2;" parent="WIyWlLk6GJQsqaUBKTNV-1" source="WIyWlLk6GJQsqaUBKTNV-3" target="NqXv0ei1hqFi60krSDiM-0" edge="1">
          <mxGeometry relative="1" as="geometry" />
        </mxCell>
        <mxCell id="WIyWlLk6GJQsqaUBKTNV-3" value="&lt;font style=&quot;font-size: 14px;&quot; face=&quot;Comic Sans MS&quot;&gt;getBean()&lt;/font&gt;" style="rounded=1;whiteSpace=wrap;html=1;fontSize=12;glass=0;strokeWidth=1;shadow=0;sketch=1;curveFitting=1;jiggle=2;" parent="WIyWlLk6GJQsqaUBKTNV-1" vertex="1">
          <mxGeometry x="505" y="80" width="120" height="40" as="geometry" />
        </mxCell>
        <mxCell id="NqXv0ei1hqFi60krSDiM-5" style="edgeStyle=orthogonalEdgeStyle;rounded=0;orthogonalLoop=1;jettySize=auto;html=1;exitX=0;exitY=0.5;exitDx=0;exitDy=0;entryX=0.5;entryY=0;entryDx=0;entryDy=0;sketch=1;curveFitting=1;jiggle=2;" parent="WIyWlLk6GJQsqaUBKTNV-1" source="NqXv0ei1hqFi60krSDiM-6" target="NqXv0ei1hqFi60krSDiM-9" edge="1">
          <mxGeometry relative="1" as="geometry">
            <mxPoint x="-495" y="250" as="targetPoint" />
          </mxGeometry>
        </mxCell>
        <mxCell id="NqXv0ei1hqFi60krSDiM-7" style="edgeStyle=orthogonalEdgeStyle;rounded=0;orthogonalLoop=1;jettySize=auto;html=1;exitX=0.5;exitY=1;exitDx=0;exitDy=0;entryX=0.5;entryY=0;entryDx=0;entryDy=0;sketch=1;curveFitting=1;jiggle=2;" parent="WIyWlLk6GJQsqaUBKTNV-1" source="NqXv0ei1hqFi60krSDiM-0" target="NqXv0ei1hqFi60krSDiM-6" edge="1">
          <mxGeometry relative="1" as="geometry" />
        </mxCell>
        <mxCell id="NqXv0ei1hqFi60krSDiM-0" value="&lt;font style=&quot;font-size: 14px;&quot; face=&quot;Comic Sans MS&quot;&gt;doGetBean()&lt;/font&gt;" style="rounded=1;whiteSpace=wrap;html=1;fontSize=12;glass=0;strokeWidth=1;shadow=0;sketch=1;curveFitting=1;jiggle=2;" parent="WIyWlLk6GJQsqaUBKTNV-1" vertex="1">
          <mxGeometry x="505" y="160" width="120" height="40" as="geometry" />
        </mxCell>
        <mxCell id="NqXv0ei1hqFi60krSDiM-2" value="&lt;font face=&quot;Comic Sans MS&quot; style=&quot;font-size: 15px;&quot;&gt;AbstractBeanFactory&lt;/font&gt;" style="text;html=1;strokeColor=none;fillColor=none;align=center;verticalAlign=middle;whiteSpace=wrap;rounded=0;" parent="WIyWlLk6GJQsqaUBKTNV-1" vertex="1">
          <mxGeometry x="480" y="30" width="170" height="30" as="geometry" />
        </mxCell>
        <mxCell id="NqXv0ei1hqFi60krSDiM-65" style="edgeStyle=orthogonalEdgeStyle;rounded=0;orthogonalLoop=1;jettySize=auto;html=1;exitX=0.5;exitY=1;exitDx=0;exitDy=0;sketch=1;curveFitting=1;jiggle=2;entryX=0.5;entryY=0;entryDx=0;entryDy=0;" parent="WIyWlLk6GJQsqaUBKTNV-1" source="NqXv0ei1hqFi60krSDiM-6" target="NqXv0ei1hqFi60krSDiM-66" edge="1">
          <mxGeometry relative="1" as="geometry">
            <mxPoint x="564.6666666666665" y="330" as="targetPoint" />
          </mxGeometry>
        </mxCell>
        <mxCell id="NqXv0ei1hqFi60krSDiM-6" value="&lt;font face=&quot;Comic Sans MS&quot; style=&quot;font-size: 14px;&quot;&gt;getSingleton&lt;/font&gt;" style="shape=process;whiteSpace=wrap;html=1;backgroundOutline=1;sketch=1;curveFitting=1;jiggle=2;" parent="WIyWlLk6GJQsqaUBKTNV-1" vertex="1">
          <mxGeometry x="515" y="230" width="100" height="40" as="geometry" />
        </mxCell>
        <mxCell id="NqXv0ei1hqFi60krSDiM-16" style="edgeStyle=orthogonalEdgeStyle;rounded=0;orthogonalLoop=1;jettySize=auto;html=1;exitX=0.5;exitY=1;exitDx=0;exitDy=0;entryX=0.5;entryY=0;entryDx=0;entryDy=0;sketch=1;curveFitting=1;jiggle=2;" parent="WIyWlLk6GJQsqaUBKTNV-1" source="NqXv0ei1hqFi60krSDiM-9" target="NqXv0ei1hqFi60krSDiM-17" edge="1">
          <mxGeometry relative="1" as="geometry">
            <mxPoint x="-828" y="370.0000000000001" as="targetPoint" />
          </mxGeometry>
        </mxCell>
        <mxCell id="NqXv0ei1hqFi60krSDiM-9" value="&lt;font style=&quot;&quot; face=&quot;Comic Sans MS&quot;&gt;&lt;font style=&quot;font-size: 14px;&quot;&gt;getSingleton&lt;/font&gt;&lt;span style=&quot;font-size: 11px;&quot;&gt;(&lt;/span&gt;&lt;font style=&quot;font-size: 10px;&quot;&gt;beanName, allEarlyReference:true&lt;/font&gt;&lt;span style=&quot;font-size: 11px;&quot;&gt;)&lt;/span&gt;&lt;/font&gt;" style="rounded=1;whiteSpace=wrap;html=1;fontSize=12;glass=0;strokeWidth=1;shadow=0;sketch=1;curveFitting=1;jiggle=2;fillColor=#f8cecc;strokeColor=#b85450;" parent="WIyWlLk6GJQsqaUBKTNV-1" vertex="1">
          <mxGeometry x="-958" y="310" width="260" height="40" as="geometry" />
        </mxCell>
        <mxCell id="NqXv0ei1hqFi60krSDiM-11" value="&lt;font style=&quot;font-size: 15px;&quot; face=&quot;Comic Sans MS&quot;&gt;DefaultSingletonBeanRegistry&lt;/font&gt;" style="text;html=1;strokeColor=none;fillColor=none;align=center;verticalAlign=middle;whiteSpace=wrap;rounded=0;" parent="WIyWlLk6GJQsqaUBKTNV-1" vertex="1">
          <mxGeometry x="-463" y="30" width="170" height="30" as="geometry" />
        </mxCell>
        <mxCell id="NqXv0ei1hqFi60krSDiM-18" style="edgeStyle=orthogonalEdgeStyle;rounded=0;orthogonalLoop=1;jettySize=auto;html=1;exitX=0;exitY=0.5;exitDx=0;exitDy=0;entryX=0;entryY=0.5;entryDx=0;entryDy=0;sketch=1;curveFitting=1;jiggle=2;" parent="WIyWlLk6GJQsqaUBKTNV-1" source="NqXv0ei1hqFi60krSDiM-17" target="NqXv0ei1hqFi60krSDiM-9" edge="1">
          <mxGeometry relative="1" as="geometry" />
        </mxCell>
        <mxCell id="NqXv0ei1hqFi60krSDiM-19" value="&lt;font face=&quot;Comic Sans MS&quot;&gt;Yes&lt;/font&gt;" style="edgeLabel;html=1;align=center;verticalAlign=middle;resizable=0;points=[];" parent="NqXv0ei1hqFi60krSDiM-18" vertex="1" connectable="0">
          <mxGeometry x="-0.5456" relative="1" as="geometry">
            <mxPoint as="offset" />
          </mxGeometry>
        </mxCell>
        <mxCell id="NqXv0ei1hqFi60krSDiM-20" style="edgeStyle=orthogonalEdgeStyle;rounded=0;orthogonalLoop=1;jettySize=auto;html=1;exitX=0.5;exitY=1;exitDx=0;exitDy=0;sketch=1;curveFitting=1;jiggle=2;entryX=0.5;entryY=0;entryDx=0;entryDy=0;" parent="WIyWlLk6GJQsqaUBKTNV-1" source="NqXv0ei1hqFi60krSDiM-17" target="NqXv0ei1hqFi60krSDiM-22" edge="1">
          <mxGeometry relative="1" as="geometry">
            <mxPoint x="-827.6153846153848" y="570" as="targetPoint" />
          </mxGeometry>
        </mxCell>
        <mxCell id="NqXv0ei1hqFi60krSDiM-21" value="&lt;font face=&quot;Comic Sans MS&quot;&gt;No&lt;/font&gt;" style="edgeLabel;html=1;align=center;verticalAlign=middle;resizable=0;points=[];" parent="NqXv0ei1hqFi60krSDiM-20" vertex="1" connectable="0">
          <mxGeometry x="-0.1559" y="-3" relative="1" as="geometry">
            <mxPoint as="offset" />
          </mxGeometry>
        </mxCell>
        <mxCell id="NqXv0ei1hqFi60krSDiM-17" value="&lt;font style=&quot;font-size: 14px;&quot;&gt;查看一级缓存是否存在&lt;/font&gt;" style="rhombus;whiteSpace=wrap;html=1;sketch=1;curveFitting=1;jiggle=2;" parent="WIyWlLk6GJQsqaUBKTNV-1" vertex="1">
          <mxGeometry x="-910.5" y="379" width="165" height="111" as="geometry" />
        </mxCell>
        <mxCell id="NqXv0ei1hqFi60krSDiM-23" style="edgeStyle=orthogonalEdgeStyle;rounded=0;orthogonalLoop=1;jettySize=auto;html=1;exitX=1;exitY=0.5;exitDx=0;exitDy=0;entryX=1;entryY=0.5;entryDx=0;entryDy=0;sketch=1;curveFitting=1;jiggle=2;" parent="WIyWlLk6GJQsqaUBKTNV-1" source="NqXv0ei1hqFi60krSDiM-22" target="NqXv0ei1hqFi60krSDiM-9" edge="1">
          <mxGeometry relative="1" as="geometry">
            <Array as="points">
              <mxPoint x="-663" y="595" />
              <mxPoint x="-663" y="330" />
            </Array>
          </mxGeometry>
        </mxCell>
        <mxCell id="NqXv0ei1hqFi60krSDiM-24" value="&lt;font face=&quot;Comic Sans MS&quot;&gt;No&lt;/font&gt;" style="edgeLabel;html=1;align=center;verticalAlign=middle;resizable=0;points=[];" parent="NqXv0ei1hqFi60krSDiM-23" vertex="1" connectable="0">
          <mxGeometry x="-0.7868" y="-1" relative="1" as="geometry">
            <mxPoint as="offset" />
          </mxGeometry>
        </mxCell>
        <mxCell id="NqXv0ei1hqFi60krSDiM-42" style="edgeStyle=orthogonalEdgeStyle;rounded=0;orthogonalLoop=1;jettySize=auto;html=1;exitX=0.5;exitY=1;exitDx=0;exitDy=0;entryX=0.5;entryY=0;entryDx=0;entryDy=0;sketch=1;curveFitting=1;jiggle=2;" parent="WIyWlLk6GJQsqaUBKTNV-1" source="NqXv0ei1hqFi60krSDiM-22" target="NqXv0ei1hqFi60krSDiM-27" edge="1">
          <mxGeometry relative="1" as="geometry" />
        </mxCell>
        <mxCell id="NqXv0ei1hqFi60krSDiM-43" value="&lt;font face=&quot;Comic Sans MS&quot;&gt;Yes&lt;/font&gt;" style="edgeLabel;html=1;align=center;verticalAlign=middle;resizable=0;points=[];" parent="NqXv0ei1hqFi60krSDiM-42" vertex="1" connectable="0">
          <mxGeometry x="-0.1444" y="1" relative="1" as="geometry">
            <mxPoint as="offset" />
          </mxGeometry>
        </mxCell>
        <mxCell id="NqXv0ei1hqFi60krSDiM-22" value="&lt;font style=&quot;font-size: 14px;&quot;&gt;是否处于创建中&lt;/font&gt;" style="rhombus;whiteSpace=wrap;html=1;sketch=1;curveFitting=1;jiggle=2;" parent="WIyWlLk6GJQsqaUBKTNV-1" vertex="1">
          <mxGeometry x="-898" y="550" width="140" height="90" as="geometry" />
        </mxCell>
        <mxCell id="NqXv0ei1hqFi60krSDiM-28" style="edgeStyle=orthogonalEdgeStyle;rounded=0;orthogonalLoop=1;jettySize=auto;html=1;exitX=0;exitY=0.5;exitDx=0;exitDy=0;sketch=1;curveFitting=1;jiggle=2;" parent="WIyWlLk6GJQsqaUBKTNV-1" source="NqXv0ei1hqFi60krSDiM-27" edge="1">
          <mxGeometry relative="1" as="geometry">
            <mxPoint x="-963" y="330" as="targetPoint" />
            <Array as="points">
              <mxPoint x="-1003" y="725" />
              <mxPoint x="-1003" y="330" />
            </Array>
          </mxGeometry>
        </mxCell>
        <mxCell id="NqXv0ei1hqFi60krSDiM-29" value="&lt;font face=&quot;Comic Sans MS&quot;&gt;Yes&lt;/font&gt;" style="edgeLabel;html=1;align=center;verticalAlign=middle;resizable=0;points=[];" parent="NqXv0ei1hqFi60krSDiM-28" vertex="1" connectable="0">
          <mxGeometry x="-0.7795" y="2" relative="1" as="geometry">
            <mxPoint as="offset" />
          </mxGeometry>
        </mxCell>
        <mxCell id="NqXv0ei1hqFi60krSDiM-45" style="edgeStyle=orthogonalEdgeStyle;rounded=0;orthogonalLoop=1;jettySize=auto;html=1;exitX=0.5;exitY=1;exitDx=0;exitDy=0;entryX=0.5;entryY=0;entryDx=0;entryDy=0;sketch=1;curveFitting=1;jiggle=2;" parent="WIyWlLk6GJQsqaUBKTNV-1" source="NqXv0ei1hqFi60krSDiM-27" target="NqXv0ei1hqFi60krSDiM-31" edge="1">
          <mxGeometry relative="1" as="geometry" />
        </mxCell>
        <mxCell id="NqXv0ei1hqFi60krSDiM-46" value="&lt;font face=&quot;Comic Sans MS&quot;&gt;No&lt;/font&gt;" style="edgeLabel;html=1;align=center;verticalAlign=middle;resizable=0;points=[];" parent="NqXv0ei1hqFi60krSDiM-45" vertex="1" connectable="0">
          <mxGeometry x="-0.2125" y="-2" relative="1" as="geometry">
            <mxPoint as="offset" />
          </mxGeometry>
        </mxCell>
        <mxCell id="NqXv0ei1hqFi60krSDiM-27" value="&lt;font style=&quot;font-size: 14px;&quot;&gt;二级缓存是否存在&lt;/font&gt;" style="rhombus;whiteSpace=wrap;html=1;sketch=1;curveFitting=1;jiggle=2;" parent="WIyWlLk6GJQsqaUBKTNV-1" vertex="1">
          <mxGeometry x="-898" y="680" width="140" height="90" as="geometry" />
        </mxCell>
        <mxCell id="NqXv0ei1hqFi60krSDiM-32" style="edgeStyle=orthogonalEdgeStyle;rounded=0;orthogonalLoop=1;jettySize=auto;html=1;exitX=1;exitY=0.5;exitDx=0;exitDy=0;sketch=1;curveFitting=1;jiggle=2;" parent="WIyWlLk6GJQsqaUBKTNV-1" source="NqXv0ei1hqFi60krSDiM-31" edge="1">
          <mxGeometry relative="1" as="geometry">
            <mxPoint x="-663" y="570" as="targetPoint" />
          </mxGeometry>
        </mxCell>
        <mxCell id="NqXv0ei1hqFi60krSDiM-35" value="&lt;font face=&quot;Comic Sans MS&quot;&gt;No&lt;/font&gt;" style="edgeLabel;html=1;align=center;verticalAlign=middle;resizable=0;points=[];" parent="NqXv0ei1hqFi60krSDiM-32" vertex="1" connectable="0">
          <mxGeometry x="-0.7584" relative="1" as="geometry">
            <mxPoint as="offset" />
          </mxGeometry>
        </mxCell>
        <mxCell id="NqXv0ei1hqFi60krSDiM-39" style="edgeStyle=orthogonalEdgeStyle;rounded=0;orthogonalLoop=1;jettySize=auto;html=1;exitX=0.5;exitY=1;exitDx=0;exitDy=0;sketch=1;curveFitting=1;jiggle=2;" parent="WIyWlLk6GJQsqaUBKTNV-1" source="NqXv0ei1hqFi60krSDiM-31" target="NqXv0ei1hqFi60krSDiM-38" edge="1">
          <mxGeometry relative="1" as="geometry" />
        </mxCell>
        <mxCell id="NqXv0ei1hqFi60krSDiM-40" value="&lt;font face=&quot;Comic Sans MS&quot;&gt;Yes&lt;/font&gt;" style="edgeLabel;html=1;align=center;verticalAlign=middle;resizable=0;points=[];" parent="NqXv0ei1hqFi60krSDiM-39" vertex="1" connectable="0">
          <mxGeometry x="-0.0976" relative="1" as="geometry">
            <mxPoint as="offset" />
          </mxGeometry>
        </mxCell>
        <mxCell id="NqXv0ei1hqFi60krSDiM-31" value="&lt;font style=&quot;font-size: 14px;&quot;&gt;是否允许早期访问&lt;/font&gt;" style="rhombus;whiteSpace=wrap;html=1;sketch=1;curveFitting=1;jiggle=2;" parent="WIyWlLk6GJQsqaUBKTNV-1" vertex="1">
          <mxGeometry x="-898" y="810" width="140" height="90" as="geometry" />
        </mxCell>
        <mxCell id="NqXv0ei1hqFi60krSDiM-47" style="edgeStyle=orthogonalEdgeStyle;rounded=0;orthogonalLoop=1;jettySize=auto;html=1;exitX=0.5;exitY=1;exitDx=0;exitDy=0;entryX=0.5;entryY=0;entryDx=0;entryDy=0;sketch=1;curveFitting=1;jiggle=2;" parent="WIyWlLk6GJQsqaUBKTNV-1" source="NqXv0ei1hqFi60krSDiM-38" target="NqXv0ei1hqFi60krSDiM-48" edge="1">
          <mxGeometry relative="1" as="geometry">
            <mxPoint x="-828.3333333333333" y="1020" as="targetPoint" />
          </mxGeometry>
        </mxCell>
        <mxCell id="NqXv0ei1hqFi60krSDiM-38" value="&lt;font style=&quot;font-size: 14px;&quot;&gt;锁住一级缓存&lt;/font&gt;" style="rounded=0;whiteSpace=wrap;html=1;sketch=1;curveFitting=1;jiggle=2;" parent="WIyWlLk6GJQsqaUBKTNV-1" vertex="1">
          <mxGeometry x="-888" y="940" width="120" height="50" as="geometry" />
        </mxCell>
        <mxCell id="NqXv0ei1hqFi60krSDiM-49" style="edgeStyle=orthogonalEdgeStyle;rounded=0;orthogonalLoop=1;jettySize=auto;html=1;exitX=0;exitY=0.5;exitDx=0;exitDy=0;sketch=1;curveFitting=1;jiggle=2;" parent="WIyWlLk6GJQsqaUBKTNV-1" source="NqXv0ei1hqFi60krSDiM-48" edge="1">
          <mxGeometry relative="1" as="geometry">
            <mxPoint x="-1003" y="700" as="targetPoint" />
          </mxGeometry>
        </mxCell>
        <mxCell id="NqXv0ei1hqFi60krSDiM-50" value="&lt;font face=&quot;Comic Sans MS&quot;&gt;No&lt;/font&gt;" style="edgeLabel;html=1;align=center;verticalAlign=middle;resizable=0;points=[];" parent="NqXv0ei1hqFi60krSDiM-49" vertex="1" connectable="0">
          <mxGeometry x="-0.7536" y="-4" relative="1" as="geometry">
            <mxPoint as="offset" />
          </mxGeometry>
        </mxCell>
        <mxCell id="NqXv0ei1hqFi60krSDiM-51" style="edgeStyle=orthogonalEdgeStyle;rounded=0;orthogonalLoop=1;jettySize=auto;html=1;exitX=0.5;exitY=1;exitDx=0;exitDy=0;sketch=1;curveFitting=1;jiggle=2;" parent="WIyWlLk6GJQsqaUBKTNV-1" source="NqXv0ei1hqFi60krSDiM-48" edge="1">
          <mxGeometry relative="1" as="geometry">
            <mxPoint x="-828.3333333333333" y="1160" as="targetPoint" />
          </mxGeometry>
        </mxCell>
        <mxCell id="NqXv0ei1hqFi60krSDiM-52" value="&lt;font face=&quot;Comic Sans MS&quot;&gt;Yes&lt;/font&gt;" style="edgeLabel;html=1;align=center;verticalAlign=middle;resizable=0;points=[];" parent="NqXv0ei1hqFi60krSDiM-51" vertex="1" connectable="0">
          <mxGeometry x="-0.1728" relative="1" as="geometry">
            <mxPoint as="offset" />
          </mxGeometry>
        </mxCell>
        <mxCell id="NqXv0ei1hqFi60krSDiM-48" value="&lt;font style=&quot;font-size: 14px;&quot;&gt;一级、二级缓存均不存在&lt;/font&gt;" style="rhombus;whiteSpace=wrap;html=1;sketch=1;curveFitting=1;jiggle=2;" parent="WIyWlLk6GJQsqaUBKTNV-1" vertex="1">
          <mxGeometry x="-915.5" y="1020" width="175" height="90" as="geometry" />
        </mxCell>
        <mxCell id="NqXv0ei1hqFi60krSDiM-54" style="edgeStyle=orthogonalEdgeStyle;rounded=0;orthogonalLoop=1;jettySize=auto;html=1;exitX=1;exitY=0.5;exitDx=0;exitDy=0;sketch=1;curveFitting=1;jiggle=2;" parent="WIyWlLk6GJQsqaUBKTNV-1" source="NqXv0ei1hqFi60krSDiM-53" edge="1">
          <mxGeometry relative="1" as="geometry">
            <mxPoint x="-663" y="820" as="targetPoint" />
          </mxGeometry>
        </mxCell>
        <mxCell id="NqXv0ei1hqFi60krSDiM-55" value="&lt;font face=&quot;Comic Sans MS&quot;&gt;No&lt;/font&gt;" style="edgeLabel;html=1;align=center;verticalAlign=middle;resizable=0;points=[];" parent="NqXv0ei1hqFi60krSDiM-54" vertex="1" connectable="0">
          <mxGeometry x="-0.8071" relative="1" as="geometry">
            <mxPoint as="offset" />
          </mxGeometry>
        </mxCell>
        <mxCell id="NqXv0ei1hqFi60krSDiM-56" style="edgeStyle=orthogonalEdgeStyle;rounded=0;orthogonalLoop=1;jettySize=auto;html=1;exitX=0.5;exitY=1;exitDx=0;exitDy=0;sketch=1;curveFitting=1;jiggle=2;entryX=0.5;entryY=0;entryDx=0;entryDy=0;" parent="WIyWlLk6GJQsqaUBKTNV-1" source="NqXv0ei1hqFi60krSDiM-53" target="NqXv0ei1hqFi60krSDiM-59" edge="1">
          <mxGeometry relative="1" as="geometry">
            <mxPoint x="-828.3333333333333" y="1290" as="targetPoint" />
          </mxGeometry>
        </mxCell>
        <mxCell id="NqXv0ei1hqFi60krSDiM-57" value="&lt;font face=&quot;Comic Sans MS&quot;&gt;Yes&lt;/font&gt;" style="edgeLabel;html=1;align=center;verticalAlign=middle;resizable=0;points=[];" parent="NqXv0ei1hqFi60krSDiM-56" vertex="1" connectable="0">
          <mxGeometry x="-0.2574" y="3" relative="1" as="geometry">
            <mxPoint as="offset" />
          </mxGeometry>
        </mxCell>
        <mxCell id="NqXv0ei1hqFi60krSDiM-53" value="&lt;font style=&quot;font-size: 14px;&quot;&gt;三级缓存是否存在&lt;/font&gt;" style="rhombus;whiteSpace=wrap;html=1;sketch=1;curveFitting=1;jiggle=2;" parent="WIyWlLk6GJQsqaUBKTNV-1" vertex="1">
          <mxGeometry x="-898" y="1160" width="140" height="90" as="geometry" />
        </mxCell>
        <mxCell id="NqXv0ei1hqFi60krSDiM-60" style="edgeStyle=orthogonalEdgeStyle;rounded=0;orthogonalLoop=1;jettySize=auto;html=1;exitX=0.5;exitY=1;exitDx=0;exitDy=0;sketch=1;curveFitting=1;jiggle=2;entryX=0.5;entryY=0;entryDx=0;entryDy=0;" parent="WIyWlLk6GJQsqaUBKTNV-1" source="NqXv0ei1hqFi60krSDiM-59" target="NqXv0ei1hqFi60krSDiM-61" edge="1">
          <mxGeometry relative="1" as="geometry">
            <mxPoint x="-828.3333333333333" y="1400" as="targetPoint" />
          </mxGeometry>
        </mxCell>
        <mxCell id="w9YTLLDqz4IBOpA_Bn1p-30" style="edgeStyle=orthogonalEdgeStyle;rounded=0;orthogonalLoop=1;jettySize=auto;html=1;exitX=1;exitY=0.5;exitDx=0;exitDy=0;sketch=1;curveFitting=1;jiggle=2;entryX=0.5;entryY=0;entryDx=0;entryDy=0;" parent="WIyWlLk6GJQsqaUBKTNV-1" source="NqXv0ei1hqFi60krSDiM-59" target="w9YTLLDqz4IBOpA_Bn1p-42" edge="1">
          <mxGeometry relative="1" as="geometry">
            <mxPoint x="-603" y="1680" as="targetPoint" />
          </mxGeometry>
        </mxCell>
        <mxCell id="NqXv0ei1hqFi60krSDiM-59" value="&lt;font face=&quot;Comic Sans MS&quot; style=&quot;font-size: 14px;&quot;&gt;singletonFactory.getObject()&lt;/font&gt;" style="rounded=1;whiteSpace=wrap;html=1;sketch=1;curveFitting=1;jiggle=2;" parent="WIyWlLk6GJQsqaUBKTNV-1" vertex="1">
          <mxGeometry x="-943" y="1300" width="230" height="60" as="geometry" />
        </mxCell>
        <mxCell id="NqXv0ei1hqFi60krSDiM-63" style="edgeStyle=orthogonalEdgeStyle;rounded=0;orthogonalLoop=1;jettySize=auto;html=1;exitX=0.5;exitY=1;exitDx=0;exitDy=0;entryX=0.5;entryY=0;entryDx=0;entryDy=0;sketch=1;curveFitting=1;jiggle=2;" parent="WIyWlLk6GJQsqaUBKTNV-1" source="NqXv0ei1hqFi60krSDiM-61" target="NqXv0ei1hqFi60krSDiM-62" edge="1">
          <mxGeometry relative="1" as="geometry" />
        </mxCell>
        <mxCell id="NqXv0ei1hqFi60krSDiM-61" value="&lt;font style=&quot;font-size: 14px;&quot;&gt;存入二级缓存&lt;/font&gt;" style="rounded=0;whiteSpace=wrap;html=1;sketch=1;curveFitting=1;jiggle=2;" parent="WIyWlLk6GJQsqaUBKTNV-1" vertex="1">
          <mxGeometry x="-888" y="1410" width="120" height="60" as="geometry" />
        </mxCell>
        <mxCell id="NqXv0ei1hqFi60krSDiM-64" style="edgeStyle=orthogonalEdgeStyle;rounded=0;orthogonalLoop=1;jettySize=auto;html=1;exitX=0;exitY=0.5;exitDx=0;exitDy=0;sketch=1;curveFitting=1;jiggle=2;" parent="WIyWlLk6GJQsqaUBKTNV-1" source="NqXv0ei1hqFi60krSDiM-62" edge="1">
          <mxGeometry relative="1" as="geometry">
            <mxPoint x="-1003" y="978.3333333333334" as="targetPoint" />
          </mxGeometry>
        </mxCell>
        <mxCell id="NqXv0ei1hqFi60krSDiM-62" value="&lt;font style=&quot;font-size: 14px;&quot;&gt;从三级缓存移除&lt;/font&gt;" style="rounded=0;whiteSpace=wrap;html=1;sketch=1;curveFitting=1;jiggle=2;" parent="WIyWlLk6GJQsqaUBKTNV-1" vertex="1">
          <mxGeometry x="-888" y="1510" width="120" height="60" as="geometry" />
        </mxCell>
        <mxCell id="NqXv0ei1hqFi60krSDiM-67" style="edgeStyle=orthogonalEdgeStyle;rounded=0;orthogonalLoop=1;jettySize=auto;html=1;exitX=1;exitY=0.5;exitDx=0;exitDy=0;sketch=1;curveFitting=1;jiggle=2;entryX=0;entryY=0.5;entryDx=0;entryDy=0;" parent="WIyWlLk6GJQsqaUBKTNV-1" source="NqXv0ei1hqFi60krSDiM-66" target="NqXv0ei1hqFi60krSDiM-73" edge="1">
          <mxGeometry relative="1" as="geometry">
            <mxPoint x="690" y="460" as="targetPoint" />
          </mxGeometry>
        </mxCell>
        <mxCell id="NqXv0ei1hqFi60krSDiM-114" value="&lt;font face=&quot;Comic Sans MS&quot;&gt;Yes&lt;/font&gt;" style="edgeLabel;html=1;align=center;verticalAlign=middle;resizable=0;points=[];" parent="NqXv0ei1hqFi60krSDiM-67" vertex="1" connectable="0">
          <mxGeometry x="-0.6696" y="4" relative="1" as="geometry">
            <mxPoint as="offset" />
          </mxGeometry>
        </mxCell>
        <mxCell id="NqXv0ei1hqFi60krSDiM-69" style="edgeStyle=orthogonalEdgeStyle;rounded=0;orthogonalLoop=1;jettySize=auto;html=1;exitX=0.5;exitY=1;exitDx=0;exitDy=0;sketch=1;curveFitting=1;jiggle=2;entryX=0.5;entryY=0;entryDx=0;entryDy=0;" parent="WIyWlLk6GJQsqaUBKTNV-1" source="NqXv0ei1hqFi60krSDiM-66" target="NqXv0ei1hqFi60krSDiM-75" edge="1">
          <mxGeometry relative="1" as="geometry">
            <mxPoint x="565.2" y="480" as="targetPoint" />
          </mxGeometry>
        </mxCell>
        <mxCell id="NqXv0ei1hqFi60krSDiM-70" value="&lt;font face=&quot;Comic Sans MS&quot;&gt;No&lt;/font&gt;" style="edgeLabel;html=1;align=center;verticalAlign=middle;resizable=0;points=[];" parent="NqXv0ei1hqFi60krSDiM-69" vertex="1" connectable="0">
          <mxGeometry x="-0.0634" y="-1" relative="1" as="geometry">
            <mxPoint as="offset" />
          </mxGeometry>
        </mxCell>
        <mxCell id="NqXv0ei1hqFi60krSDiM-66" value="&lt;font style=&quot;font-size: 14px;&quot;&gt;实例是否存在&lt;/font&gt;" style="rhombus;whiteSpace=wrap;html=1;sketch=1;curveFitting=1;jiggle=2;" parent="WIyWlLk6GJQsqaUBKTNV-1" vertex="1">
          <mxGeometry x="495" y="330" width="140" height="90" as="geometry" />
        </mxCell>
        <mxCell id="NqXv0ei1hqFi60krSDiM-72" style="edgeStyle=orthogonalEdgeStyle;rounded=0;orthogonalLoop=1;jettySize=auto;html=1;exitX=0.5;exitY=0;exitDx=0;exitDy=0;entryX=1;entryY=0.5;entryDx=0;entryDy=0;sketch=1;curveFitting=1;jiggle=2;" parent="WIyWlLk6GJQsqaUBKTNV-1" source="NqXv0ei1hqFi60krSDiM-71" target="NqXv0ei1hqFi60krSDiM-0" edge="1">
          <mxGeometry relative="1" as="geometry" />
        </mxCell>
        <mxCell id="NqXv0ei1hqFi60krSDiM-71" value="&lt;font style=&quot;font-size: 14px;&quot; face=&quot;Comic Sans MS&quot;&gt;adaptBeanInstance&lt;br&gt;类型校验与转换&lt;br&gt;&lt;/font&gt;" style="rounded=1;whiteSpace=wrap;html=1;sketch=1;curveFitting=1;jiggle=2;" parent="WIyWlLk6GJQsqaUBKTNV-1" vertex="1">
          <mxGeometry x="1360" y="345" width="160" height="60" as="geometry" />
        </mxCell>
        <mxCell id="NqXv0ei1hqFi60krSDiM-74" style="edgeStyle=orthogonalEdgeStyle;rounded=0;orthogonalLoop=1;jettySize=auto;html=1;exitX=1;exitY=0.5;exitDx=0;exitDy=0;entryX=0;entryY=0.5;entryDx=0;entryDy=0;sketch=1;curveFitting=1;jiggle=2;" parent="WIyWlLk6GJQsqaUBKTNV-1" source="NqXv0ei1hqFi60krSDiM-73" target="NqXv0ei1hqFi60krSDiM-71" edge="1">
          <mxGeometry relative="1" as="geometry" />
        </mxCell>
        <mxCell id="NqXv0ei1hqFi60krSDiM-73" value="&lt;font style=&quot;&quot; face=&quot;Comic Sans MS&quot;&gt;&lt;font style=&quot;font-size: 14px;&quot;&gt;getObjectForBeanInstance&lt;br&gt;&lt;/font&gt;根据需要决定是否从工厂 bean 解析出实例&lt;br&gt;&lt;/font&gt;" style="rounded=1;whiteSpace=wrap;html=1;sketch=1;curveFitting=1;jiggle=2;" parent="WIyWlLk6GJQsqaUBKTNV-1" vertex="1">
          <mxGeometry x="1090" y="345" width="200" height="60" as="geometry" />
        </mxCell>
        <mxCell id="NqXv0ei1hqFi60krSDiM-76" style="edgeStyle=orthogonalEdgeStyle;rounded=0;orthogonalLoop=1;jettySize=auto;html=1;exitX=1;exitY=0.5;exitDx=0;exitDy=0;sketch=1;curveFitting=1;jiggle=2;entryX=0;entryY=0.5;entryDx=0;entryDy=0;" parent="WIyWlLk6GJQsqaUBKTNV-1" source="NqXv0ei1hqFi60krSDiM-75" target="NqXv0ei1hqFi60krSDiM-78" edge="1">
          <mxGeometry relative="1" as="geometry">
            <mxPoint x="800.0000000000002" y="504.92592592592587" as="targetPoint" />
          </mxGeometry>
        </mxCell>
        <mxCell id="NqXv0ei1hqFi60krSDiM-77" value="&lt;font face=&quot;Comic Sans MS&quot;&gt;Yes&lt;/font&gt;" style="edgeLabel;html=1;align=center;verticalAlign=middle;resizable=0;points=[];" parent="NqXv0ei1hqFi60krSDiM-76" vertex="1" connectable="0">
          <mxGeometry x="-0.2245" y="2" relative="1" as="geometry">
            <mxPoint as="offset" />
          </mxGeometry>
        </mxCell>
        <mxCell id="NqXv0ei1hqFi60krSDiM-79" style="edgeStyle=orthogonalEdgeStyle;rounded=0;orthogonalLoop=1;jettySize=auto;html=1;exitX=0.5;exitY=1;exitDx=0;exitDy=0;sketch=1;curveFitting=1;jiggle=2;entryX=0.5;entryY=0;entryDx=0;entryDy=0;" parent="WIyWlLk6GJQsqaUBKTNV-1" source="NqXv0ei1hqFi60krSDiM-75" target="NqXv0ei1hqFi60krSDiM-81" edge="1">
          <mxGeometry relative="1" as="geometry">
            <mxPoint x="564.9259259259259" y="590" as="targetPoint" />
          </mxGeometry>
        </mxCell>
        <mxCell id="NqXv0ei1hqFi60krSDiM-80" value="&lt;font face=&quot;Comic Sans MS&quot;&gt;No&lt;/font&gt;" style="edgeLabel;html=1;align=center;verticalAlign=middle;resizable=0;points=[];" parent="NqXv0ei1hqFi60krSDiM-79" vertex="1" connectable="0">
          <mxGeometry x="-0.2162" relative="1" as="geometry">
            <mxPoint as="offset" />
          </mxGeometry>
        </mxCell>
        <mxCell id="NqXv0ei1hqFi60krSDiM-75" value="&lt;font style=&quot;font-size: 14px;&quot;&gt;原型 bean 且处于创建阶段&lt;/font&gt;" style="rhombus;whiteSpace=wrap;html=1;sketch=1;curveFitting=1;jiggle=2;" parent="WIyWlLk6GJQsqaUBKTNV-1" vertex="1">
          <mxGeometry x="471.26" y="470" width="187.5" height="70" as="geometry" />
        </mxCell>
        <mxCell id="NqXv0ei1hqFi60krSDiM-78" value="&lt;font face=&quot;Comic Sans MS&quot; style=&quot;font-size: 14px;&quot;&gt;BeanCurrentlyInCreationException&lt;/font&gt;" style="rounded=0;whiteSpace=wrap;html=1;sketch=1;curveFitting=1;jiggle=2;" parent="WIyWlLk6GJQsqaUBKTNV-1" vertex="1">
          <mxGeometry x="750.62" y="475" width="240" height="60" as="geometry" />
        </mxCell>
        <mxCell id="NqXv0ei1hqFi60krSDiM-83" value="&lt;font face=&quot;Comic Sans MS&quot;&gt;No&lt;/font&gt;" style="edgeStyle=orthogonalEdgeStyle;rounded=0;orthogonalLoop=1;jettySize=auto;html=1;exitX=0.5;exitY=1;exitDx=0;exitDy=0;sketch=1;curveFitting=1;jiggle=2;entryX=0.5;entryY=0;entryDx=0;entryDy=0;" parent="WIyWlLk6GJQsqaUBKTNV-1" source="NqXv0ei1hqFi60krSDiM-81" target="NqXv0ei1hqFi60krSDiM-87" edge="1">
          <mxGeometry relative="1" as="geometry">
            <mxPoint x="565" y="750" as="targetPoint" />
          </mxGeometry>
        </mxCell>
        <mxCell id="NqXv0ei1hqFi60krSDiM-85" value="&lt;font face=&quot;Comic Sans MS&quot;&gt;Yes&lt;/font&gt;" style="edgeStyle=orthogonalEdgeStyle;rounded=0;orthogonalLoop=1;jettySize=auto;html=1;exitX=1;exitY=0.5;exitDx=0;exitDy=0;sketch=1;curveFitting=1;jiggle=2;entryX=0;entryY=0.5;entryDx=0;entryDy=0;" parent="WIyWlLk6GJQsqaUBKTNV-1" source="NqXv0ei1hqFi60krSDiM-81" target="NqXv0ei1hqFi60krSDiM-86" edge="1">
          <mxGeometry relative="1" as="geometry">
            <mxPoint x="770" y="645" as="targetPoint" />
          </mxGeometry>
        </mxCell>
        <mxCell id="NqXv0ei1hqFi60krSDiM-81" value="&lt;span style=&quot;font-size: 14px;&quot;&gt;存在父级工厂及工厂不包含当前 &lt;font style=&quot;font-size: 14px;&quot; face=&quot;Comic Sans MS&quot;&gt;bean&lt;/font&gt; 定义&lt;/span&gt;" style="rhombus;whiteSpace=wrap;html=1;sketch=1;curveFitting=1;jiggle=2;" parent="WIyWlLk6GJQsqaUBKTNV-1" vertex="1">
          <mxGeometry x="415.63" y="610" width="298.75" height="70" as="geometry" />
        </mxCell>
        <mxCell id="NqXv0ei1hqFi60krSDiM-116" style="edgeStyle=orthogonalEdgeStyle;rounded=0;orthogonalLoop=1;jettySize=auto;html=1;exitX=1;exitY=0.5;exitDx=0;exitDy=0;entryX=1;entryY=0.5;entryDx=0;entryDy=0;sketch=1;curveFitting=1;jiggle=2;jumpStyle=arc;jumpSize=13;" parent="WIyWlLk6GJQsqaUBKTNV-1" source="NqXv0ei1hqFi60krSDiM-86" target="WIyWlLk6GJQsqaUBKTNV-3" edge="1">
          <mxGeometry relative="1" as="geometry">
            <Array as="points">
              <mxPoint x="1040" y="645" />
              <mxPoint x="1040" y="100" />
            </Array>
          </mxGeometry>
        </mxCell>
        <mxCell id="NqXv0ei1hqFi60krSDiM-86" value="&lt;font style=&quot;font-size: 14px;&quot; face=&quot;Comic Sans MS&quot;&gt;originalBeanName&lt;/font&gt;" style="rounded=0;whiteSpace=wrap;html=1;sketch=1;curveFitting=1;jiggle=2;" parent="WIyWlLk6GJQsqaUBKTNV-1" vertex="1">
          <mxGeometry x="780" y="615" width="120" height="60" as="geometry" />
        </mxCell>
        <mxCell id="NqXv0ei1hqFi60krSDiM-91" style="edgeStyle=orthogonalEdgeStyle;rounded=0;orthogonalLoop=1;jettySize=auto;html=1;exitX=0.5;exitY=1;exitDx=0;exitDy=0;sketch=1;curveFitting=1;jiggle=2;" parent="WIyWlLk6GJQsqaUBKTNV-1" source="NqXv0ei1hqFi60krSDiM-87" target="NqXv0ei1hqFi60krSDiM-93" edge="1">
          <mxGeometry relative="1" as="geometry">
            <mxPoint x="565.2" y="880" as="targetPoint" />
          </mxGeometry>
        </mxCell>
        <mxCell id="NqXv0ei1hqFi60krSDiM-92" value="&lt;font face=&quot;Comic Sans MS&quot;&gt;No&lt;/font&gt;" style="edgeLabel;html=1;align=center;verticalAlign=middle;resizable=0;points=[];" parent="NqXv0ei1hqFi60krSDiM-91" vertex="1" connectable="0">
          <mxGeometry x="0.0141" y="1" relative="1" as="geometry">
            <mxPoint x="-1" y="-1" as="offset" />
          </mxGeometry>
        </mxCell>
        <mxCell id="NqXv0ei1hqFi60krSDiM-115" style="edgeStyle=orthogonalEdgeStyle;rounded=0;orthogonalLoop=1;jettySize=auto;html=1;exitX=1;exitY=0.5;exitDx=0;exitDy=0;sketch=1;curveFitting=1;jiggle=2;" parent="WIyWlLk6GJQsqaUBKTNV-1" source="NqXv0ei1hqFi60krSDiM-87" edge="1">
          <mxGeometry relative="1" as="geometry">
            <mxPoint x="1040" y="519.9999999999998" as="targetPoint" />
          </mxGeometry>
        </mxCell>
        <mxCell id="NqXv0ei1hqFi60krSDiM-117" value="&lt;font face=&quot;Comic Sans MS&quot;&gt;Yes&lt;/font&gt;" style="edgeLabel;html=1;align=center;verticalAlign=middle;resizable=0;points=[];" parent="NqXv0ei1hqFi60krSDiM-115" vertex="1" connectable="0">
          <mxGeometry x="-0.8156" y="-2" relative="1" as="geometry">
            <mxPoint x="1" as="offset" />
          </mxGeometry>
        </mxCell>
        <mxCell id="NqXv0ei1hqFi60krSDiM-87" value="&lt;font style=&quot;font-size: 14px;&quot; face=&quot;Comic Sans MS&quot;&gt;是否存在 dependOn&lt;/font&gt;" style="rhombus;whiteSpace=wrap;html=1;sketch=1;curveFitting=1;jiggle=2;" parent="WIyWlLk6GJQsqaUBKTNV-1" vertex="1">
          <mxGeometry x="475.63" y="750" width="178.75" height="80" as="geometry" />
        </mxCell>
        <mxCell id="NqXv0ei1hqFi60krSDiM-94" value="&lt;font face=&quot;Comic Sans MS&quot;&gt;Yes&lt;/font&gt;" style="edgeStyle=orthogonalEdgeStyle;rounded=0;orthogonalLoop=1;jettySize=auto;html=1;exitX=0.5;exitY=1;exitDx=0;exitDy=0;sketch=1;curveFitting=1;jiggle=2;entryX=0.5;entryY=0;entryDx=0;entryDy=0;" parent="WIyWlLk6GJQsqaUBKTNV-1" source="NqXv0ei1hqFi60krSDiM-93" target="NqXv0ei1hqFi60krSDiM-119" edge="1">
          <mxGeometry relative="1" as="geometry">
            <mxPoint x="565.2" y="1090" as="targetPoint" />
          </mxGeometry>
        </mxCell>
        <mxCell id="NqXv0ei1hqFi60krSDiM-95" style="edgeStyle=orthogonalEdgeStyle;rounded=0;orthogonalLoop=1;jettySize=auto;html=1;exitX=1;exitY=0.5;exitDx=0;exitDy=0;sketch=1;curveFitting=1;jiggle=2;entryX=0;entryY=0.5;entryDx=0;entryDy=0;" parent="WIyWlLk6GJQsqaUBKTNV-1" source="NqXv0ei1hqFi60krSDiM-93" target="NqXv0ei1hqFi60krSDiM-97" edge="1">
          <mxGeometry relative="1" as="geometry">
            <mxPoint x="750" y="930.4000000000001" as="targetPoint" />
          </mxGeometry>
        </mxCell>
        <mxCell id="NqXv0ei1hqFi60krSDiM-96" value="&lt;font face=&quot;Comic Sans MS&quot;&gt;No&lt;/font&gt;" style="edgeLabel;html=1;align=center;verticalAlign=middle;resizable=0;points=[];" parent="NqXv0ei1hqFi60krSDiM-95" vertex="1" connectable="0">
          <mxGeometry x="-0.0628" y="2" relative="1" as="geometry">
            <mxPoint as="offset" />
          </mxGeometry>
        </mxCell>
        <mxCell id="NqXv0ei1hqFi60krSDiM-93" value="&lt;font style=&quot;font-size: 14px;&quot; face=&quot;Comic Sans MS&quot;&gt;是否是单例 bean&lt;/font&gt;" style="rhombus;whiteSpace=wrap;html=1;sketch=1;curveFitting=1;jiggle=2;" parent="WIyWlLk6GJQsqaUBKTNV-1" vertex="1">
          <mxGeometry x="475.63" y="890" width="178.75" height="80" as="geometry" />
        </mxCell>
        <mxCell id="NqXv0ei1hqFi60krSDiM-98" style="edgeStyle=orthogonalEdgeStyle;rounded=0;orthogonalLoop=1;jettySize=auto;html=1;exitX=0.5;exitY=1;exitDx=0;exitDy=0;sketch=1;curveFitting=1;jiggle=2;" parent="WIyWlLk6GJQsqaUBKTNV-1" source="NqXv0ei1hqFi60krSDiM-97" target="NqXv0ei1hqFi60krSDiM-102" edge="1">
          <mxGeometry relative="1" as="geometry">
            <mxPoint x="839.5999999999999" y="1030" as="targetPoint" />
          </mxGeometry>
        </mxCell>
        <mxCell id="NqXv0ei1hqFi60krSDiM-99" value="&lt;font face=&quot;Comic Sans MS&quot;&gt;原型 bean&lt;/font&gt;" style="edgeLabel;html=1;align=center;verticalAlign=middle;resizable=0;points=[];" parent="NqXv0ei1hqFi60krSDiM-98" vertex="1" connectable="0">
          <mxGeometry x="0.0013" y="3" relative="1" as="geometry">
            <mxPoint as="offset" />
          </mxGeometry>
        </mxCell>
        <mxCell id="NqXv0ei1hqFi60krSDiM-100" style="edgeStyle=orthogonalEdgeStyle;rounded=0;orthogonalLoop=1;jettySize=auto;html=1;exitX=1;exitY=0.5;exitDx=0;exitDy=0;sketch=1;curveFitting=1;jiggle=2;entryX=0;entryY=0.5;entryDx=0;entryDy=0;" parent="WIyWlLk6GJQsqaUBKTNV-1" source="NqXv0ei1hqFi60krSDiM-97" target="NqXv0ei1hqFi60krSDiM-103" edge="1">
          <mxGeometry relative="1" as="geometry">
            <mxPoint x="1050" y="930" as="targetPoint" />
          </mxGeometry>
        </mxCell>
        <mxCell id="NqXv0ei1hqFi60krSDiM-101" value="&lt;font face=&quot;Comic Sans MS&quot;&gt;scope&lt;/font&gt;" style="edgeLabel;html=1;align=center;verticalAlign=middle;resizable=0;points=[];" parent="NqXv0ei1hqFi60krSDiM-100" vertex="1" connectable="0">
          <mxGeometry x="-0.1995" y="-1" relative="1" as="geometry">
            <mxPoint as="offset" />
          </mxGeometry>
        </mxCell>
        <mxCell id="NqXv0ei1hqFi60krSDiM-97" value="&lt;font style=&quot;font-size: 14px;&quot; face=&quot;Comic Sans MS&quot;&gt;bean 类型&lt;/font&gt;" style="rhombus;whiteSpace=wrap;html=1;sketch=1;curveFitting=1;jiggle=2;" parent="WIyWlLk6GJQsqaUBKTNV-1" vertex="1">
          <mxGeometry x="750.62" y="890" width="178.75" height="80" as="geometry" />
        </mxCell>
        <mxCell id="NqXv0ei1hqFi60krSDiM-109" style="edgeStyle=orthogonalEdgeStyle;rounded=0;orthogonalLoop=1;jettySize=auto;html=1;exitX=1;exitY=0.5;exitDx=0;exitDy=0;entryX=0.5;entryY=1;entryDx=0;entryDy=0;sketch=1;curveFitting=1;jiggle=2;" parent="WIyWlLk6GJQsqaUBKTNV-1" source="NqXv0ei1hqFi60krSDiM-102" target="NqXv0ei1hqFi60krSDiM-107" edge="1">
          <mxGeometry relative="1" as="geometry" />
        </mxCell>
        <mxCell id="NqXv0ei1hqFi60krSDiM-102" value="&lt;font style=&quot;font-size: 14px;&quot;&gt;原型处理&lt;/font&gt;" style="rounded=0;whiteSpace=wrap;html=1;sketch=1;curveFitting=1;jiggle=2;" parent="WIyWlLk6GJQsqaUBKTNV-1" vertex="1">
          <mxGeometry x="779.99" y="1010" width="120" height="50" as="geometry" />
        </mxCell>
        <mxCell id="NqXv0ei1hqFi60krSDiM-108" style="edgeStyle=orthogonalEdgeStyle;rounded=0;orthogonalLoop=1;jettySize=auto;html=1;exitX=1;exitY=0.5;exitDx=0;exitDy=0;entryX=0;entryY=0.5;entryDx=0;entryDy=0;sketch=1;curveFitting=1;jiggle=2;" parent="WIyWlLk6GJQsqaUBKTNV-1" source="NqXv0ei1hqFi60krSDiM-103" target="NqXv0ei1hqFi60krSDiM-107" edge="1">
          <mxGeometry relative="1" as="geometry" />
        </mxCell>
        <mxCell id="NqXv0ei1hqFi60krSDiM-103" value="&lt;font style=&quot;font-size: 14px;&quot; face=&quot;Comic Sans MS&quot;&gt;scop 处理&lt;/font&gt;" style="rounded=0;whiteSpace=wrap;html=1;sketch=1;curveFitting=1;jiggle=2;" parent="WIyWlLk6GJQsqaUBKTNV-1" vertex="1">
          <mxGeometry x="1050" y="905" width="120" height="50" as="geometry" />
        </mxCell>
        <mxCell id="NqXv0ei1hqFi60krSDiM-105" value="&lt;font face=&quot;Comic Sans MS&quot; style=&quot;font-size: 15px;&quot;&gt;AbstractAutowireCapableBeanFactory&lt;/font&gt;" style="text;html=1;strokeColor=none;fillColor=none;align=center;verticalAlign=middle;whiteSpace=wrap;rounded=0;" parent="WIyWlLk6GJQsqaUBKTNV-1" vertex="1">
          <mxGeometry x="2320" y="25" width="290" height="30" as="geometry" />
        </mxCell>
        <mxCell id="Q4ZqcIHXgOIeblmxRWBi-48" style="edgeStyle=orthogonalEdgeStyle;rounded=0;orthogonalLoop=1;jettySize=auto;html=1;exitX=0.5;exitY=1;exitDx=0;exitDy=0;entryX=0.5;entryY=0;entryDx=0;entryDy=0;sketch=1;curveFitting=1;jiggle=2;" parent="WIyWlLk6GJQsqaUBKTNV-1" source="NqXv0ei1hqFi60krSDiM-106" target="Q4ZqcIHXgOIeblmxRWBi-46" edge="1">
          <mxGeometry relative="1" as="geometry" />
        </mxCell>
        <mxCell id="NqXv0ei1hqFi60krSDiM-106" value="&lt;font face=&quot;Comic Sans MS&quot; style=&quot;font-size: 14px;&quot;&gt;createBean&lt;/font&gt;" style="rounded=1;whiteSpace=wrap;html=1;sketch=1;curveFitting=1;jiggle=2;fillColor=#f8cecc;strokeColor=#b85450;" parent="WIyWlLk6GJQsqaUBKTNV-1" vertex="1">
          <mxGeometry x="2384.5" y="90" width="120" height="60" as="geometry" />
        </mxCell>
        <mxCell id="NqXv0ei1hqFi60krSDiM-112" style="edgeStyle=orthogonalEdgeStyle;rounded=0;orthogonalLoop=1;jettySize=auto;html=1;exitX=1;exitY=0.5;exitDx=0;exitDy=0;sketch=1;curveFitting=1;jiggle=2;entryX=0;entryY=0.5;entryDx=0;entryDy=0;" parent="WIyWlLk6GJQsqaUBKTNV-1" target="NqXv0ei1hqFi60krSDiM-106" edge="1">
          <mxGeometry relative="1" as="geometry">
            <mxPoint x="1520" y="955" as="sourcePoint" />
            <mxPoint x="2390" y="120" as="targetPoint" />
            <Array as="points">
              <mxPoint x="1660" y="955" />
              <mxPoint x="1660" y="120" />
            </Array>
          </mxGeometry>
        </mxCell>
        <mxCell id="NqXv0ei1hqFi60krSDiM-113" style="edgeStyle=orthogonalEdgeStyle;rounded=0;orthogonalLoop=1;jettySize=auto;html=1;exitX=0.5;exitY=0;exitDx=0;exitDy=0;entryX=0.5;entryY=1;entryDx=0;entryDy=0;sketch=1;curveFitting=1;jiggle=2;" parent="WIyWlLk6GJQsqaUBKTNV-1" source="NqXv0ei1hqFi60krSDiM-107" target="NqXv0ei1hqFi60krSDiM-73" edge="1">
          <mxGeometry relative="1" as="geometry">
            <mxPoint x="1330" y="580" as="targetPoint" />
          </mxGeometry>
        </mxCell>
        <mxCell id="w9YTLLDqz4IBOpA_Bn1p-26" value="拿到结果" style="edgeLabel;html=1;align=center;verticalAlign=middle;resizable=0;points=[];" parent="NqXv0ei1hqFi60krSDiM-113" vertex="1" connectable="0">
          <mxGeometry x="-0.7598" y="3" relative="1" as="geometry">
            <mxPoint y="1" as="offset" />
          </mxGeometry>
        </mxCell>
        <mxCell id="NqXv0ei1hqFi60krSDiM-107" value="&lt;font face=&quot;Comic Sans MS&quot; style=&quot;font-size: 14px;&quot;&gt;createBean&lt;/font&gt;" style="shape=process;whiteSpace=wrap;html=1;backgroundOutline=1;sketch=1;curveFitting=1;jiggle=2;" parent="WIyWlLk6GJQsqaUBKTNV-1" vertex="1">
          <mxGeometry x="1370" y="900" width="150" height="60" as="geometry" />
        </mxCell>
        <mxCell id="w9YTLLDqz4IBOpA_Bn1p-0" style="edgeStyle=orthogonalEdgeStyle;rounded=0;orthogonalLoop=1;jettySize=auto;html=1;exitX=0.5;exitY=1;exitDx=0;exitDy=0;entryX=0.5;entryY=0;entryDx=0;entryDy=0;sketch=1;curveFitting=1;jiggle=2;" parent="WIyWlLk6GJQsqaUBKTNV-1" source="NqXv0ei1hqFi60krSDiM-118" target="w9YTLLDqz4IBOpA_Bn1p-1" edge="1">
          <mxGeometry relative="1" as="geometry">
            <mxPoint x="-305.0769230769231" y="429" as="targetPoint" />
          </mxGeometry>
        </mxCell>
        <mxCell id="NqXv0ei1hqFi60krSDiM-118" value="&lt;font style=&quot;font-size: 14px;&quot; face=&quot;Comic Sans MS&quot;&gt;getSingleton&lt;/font&gt;&lt;font style=&quot;font-size: 11px;&quot; face=&quot;Comic Sans MS&quot;&gt;(String beanName, ObjectFactory&amp;lt;?&amp;gt; singletonFactory)&lt;/font&gt;" style="rounded=1;whiteSpace=wrap;html=1;sketch=1;curveFitting=1;jiggle=2;fillColor=#f8cecc;strokeColor=#b85450;" parent="WIyWlLk6GJQsqaUBKTNV-1" vertex="1">
          <mxGeometry x="-503" y="310" width="396" height="60" as="geometry" />
        </mxCell>
        <mxCell id="w9YTLLDqz4IBOpA_Bn1p-22" style="edgeStyle=orthogonalEdgeStyle;rounded=0;orthogonalLoop=1;jettySize=auto;html=1;exitX=0;exitY=0.5;exitDx=0;exitDy=0;entryX=0.5;entryY=0;entryDx=0;entryDy=0;sketch=1;curveFitting=1;jiggle=2;" parent="WIyWlLk6GJQsqaUBKTNV-1" source="NqXv0ei1hqFi60krSDiM-119" target="NqXv0ei1hqFi60krSDiM-118" edge="1">
          <mxGeometry relative="1" as="geometry" />
        </mxCell>
        <mxCell id="w9YTLLDqz4IBOpA_Bn1p-23" style="edgeStyle=orthogonalEdgeStyle;rounded=0;orthogonalLoop=1;jettySize=auto;html=1;exitX=0.5;exitY=1;exitDx=0;exitDy=0;entryX=0.75;entryY=1;entryDx=0;entryDy=0;sketch=1;curveFitting=1;jiggle=2;jumpStyle=arc;jumpSize=13;" parent="WIyWlLk6GJQsqaUBKTNV-1" source="NqXv0ei1hqFi60krSDiM-119" target="NqXv0ei1hqFi60krSDiM-73" edge="1">
          <mxGeometry relative="1" as="geometry" />
        </mxCell>
        <mxCell id="w9YTLLDqz4IBOpA_Bn1p-25" value="拿到结果" style="edgeLabel;html=1;align=center;verticalAlign=middle;resizable=0;points=[];" parent="w9YTLLDqz4IBOpA_Bn1p-23" vertex="1" connectable="0">
          <mxGeometry x="-0.7936" y="2" relative="1" as="geometry">
            <mxPoint as="offset" />
          </mxGeometry>
        </mxCell>
        <mxCell id="NqXv0ei1hqFi60krSDiM-119" value="&lt;font face=&quot;Comic Sans MS&quot; style=&quot;font-size: 14px;&quot;&gt;getSingleton&lt;/font&gt;" style="shape=process;whiteSpace=wrap;html=1;backgroundOutline=1;sketch=1;curveFitting=1;jiggle=2;" parent="WIyWlLk6GJQsqaUBKTNV-1" vertex="1">
          <mxGeometry x="505.01" y="1080" width="120" height="60" as="geometry" />
        </mxCell>
        <mxCell id="w9YTLLDqz4IBOpA_Bn1p-2" style="edgeStyle=orthogonalEdgeStyle;rounded=0;orthogonalLoop=1;jettySize=auto;html=1;exitX=0.5;exitY=1;exitDx=0;exitDy=0;sketch=1;curveFitting=1;jiggle=2;entryX=0.5;entryY=0;entryDx=0;entryDy=0;" parent="WIyWlLk6GJQsqaUBKTNV-1" source="w9YTLLDqz4IBOpA_Bn1p-1" target="w9YTLLDqz4IBOpA_Bn1p-3" edge="1">
          <mxGeometry relative="1" as="geometry">
            <mxPoint x="-305.0769230769231" y="479" as="targetPoint" />
          </mxGeometry>
        </mxCell>
        <mxCell id="w9YTLLDqz4IBOpA_Bn1p-1" value="&lt;font style=&quot;font-size: 14px;&quot;&gt;锁住一级缓存&lt;/font&gt;" style="rounded=0;whiteSpace=wrap;html=1;sketch=1;curveFitting=1;jiggle=2;" parent="WIyWlLk6GJQsqaUBKTNV-1" vertex="1">
          <mxGeometry x="-365" y="399" width="120" height="40" as="geometry" />
        </mxCell>
        <mxCell id="w9YTLLDqz4IBOpA_Bn1p-4" style="edgeStyle=orthogonalEdgeStyle;rounded=0;orthogonalLoop=1;jettySize=auto;html=1;exitX=1;exitY=0.5;exitDx=0;exitDy=0;entryX=1;entryY=0.5;entryDx=0;entryDy=0;sketch=1;curveFitting=1;jiggle=2;" parent="WIyWlLk6GJQsqaUBKTNV-1" source="w9YTLLDqz4IBOpA_Bn1p-3" target="NqXv0ei1hqFi60krSDiM-118" edge="1">
          <mxGeometry relative="1" as="geometry">
            <Array as="points">
              <mxPoint x="-73" y="509" />
              <mxPoint x="-73" y="340" />
            </Array>
          </mxGeometry>
        </mxCell>
        <mxCell id="w9YTLLDqz4IBOpA_Bn1p-5" value="&lt;font face=&quot;Comic Sans MS&quot;&gt;Yes&lt;/font&gt;" style="edgeLabel;html=1;align=center;verticalAlign=middle;resizable=0;points=[];" parent="w9YTLLDqz4IBOpA_Bn1p-4" vertex="1" connectable="0">
          <mxGeometry x="-0.7208" relative="1" as="geometry">
            <mxPoint as="offset" />
          </mxGeometry>
        </mxCell>
        <mxCell id="w9YTLLDqz4IBOpA_Bn1p-6" style="edgeStyle=orthogonalEdgeStyle;rounded=0;orthogonalLoop=1;jettySize=auto;html=1;exitX=0.5;exitY=1;exitDx=0;exitDy=0;sketch=1;curveFitting=1;jiggle=2;entryX=0.5;entryY=0;entryDx=0;entryDy=0;" parent="WIyWlLk6GJQsqaUBKTNV-1" source="w9YTLLDqz4IBOpA_Bn1p-3" target="w9YTLLDqz4IBOpA_Bn1p-8" edge="1">
          <mxGeometry relative="1" as="geometry">
            <mxPoint x="-305" y="609" as="targetPoint" />
          </mxGeometry>
        </mxCell>
        <mxCell id="w9YTLLDqz4IBOpA_Bn1p-7" value="&lt;font face=&quot;Comic Sans MS&quot;&gt;No&lt;/font&gt;" style="edgeLabel;html=1;align=center;verticalAlign=middle;resizable=0;points=[];" parent="w9YTLLDqz4IBOpA_Bn1p-6" vertex="1" connectable="0">
          <mxGeometry x="-0.2039" y="-1" relative="1" as="geometry">
            <mxPoint as="offset" />
          </mxGeometry>
        </mxCell>
        <mxCell id="w9YTLLDqz4IBOpA_Bn1p-3" value="&lt;font style=&quot;font-size: 14px;&quot; face=&quot;Comic Sans MS&quot;&gt;一级缓存是否存在&lt;/font&gt;" style="rhombus;whiteSpace=wrap;html=1;sketch=1;curveFitting=1;jiggle=2;" parent="WIyWlLk6GJQsqaUBKTNV-1" vertex="1">
          <mxGeometry x="-394.38" y="469" width="178.75" height="80" as="geometry" />
        </mxCell>
        <mxCell id="w9YTLLDqz4IBOpA_Bn1p-9" value="&lt;font face=&quot;Comic Sans MS&quot;&gt;No&lt;/font&gt;" style="edgeStyle=orthogonalEdgeStyle;rounded=0;orthogonalLoop=1;jettySize=auto;html=1;exitX=1;exitY=0.5;exitDx=0;exitDy=0;sketch=1;curveFitting=1;jiggle=2;entryX=0;entryY=0.5;entryDx=0;entryDy=0;" parent="WIyWlLk6GJQsqaUBKTNV-1" source="w9YTLLDqz4IBOpA_Bn1p-8" target="w9YTLLDqz4IBOpA_Bn1p-10" edge="1">
          <mxGeometry relative="1" as="geometry">
            <mxPoint x="-132.99999999999977" y="628.6923076923076" as="targetPoint" />
          </mxGeometry>
        </mxCell>
        <mxCell id="w9YTLLDqz4IBOpA_Bn1p-11" style="edgeStyle=orthogonalEdgeStyle;rounded=0;orthogonalLoop=1;jettySize=auto;html=1;exitX=0.5;exitY=1;exitDx=0;exitDy=0;sketch=1;curveFitting=1;jiggle=2;entryX=0.5;entryY=0;entryDx=0;entryDy=0;" parent="WIyWlLk6GJQsqaUBKTNV-1" source="w9YTLLDqz4IBOpA_Bn1p-8" target="w9YTLLDqz4IBOpA_Bn1p-13" edge="1">
          <mxGeometry relative="1" as="geometry">
            <mxPoint x="-305.0769230769231" y="719" as="targetPoint" />
          </mxGeometry>
        </mxCell>
        <mxCell id="w9YTLLDqz4IBOpA_Bn1p-12" value="&lt;font face=&quot;Comic Sans MS&quot;&gt;Yes&lt;/font&gt;" style="edgeLabel;html=1;align=center;verticalAlign=middle;resizable=0;points=[];" parent="w9YTLLDqz4IBOpA_Bn1p-11" vertex="1" connectable="0">
          <mxGeometry x="-0.1573" relative="1" as="geometry">
            <mxPoint as="offset" />
          </mxGeometry>
        </mxCell>
        <mxCell id="w9YTLLDqz4IBOpA_Bn1p-8" value="&lt;font style=&quot;font-size: 14px;&quot; face=&quot;Comic Sans MS&quot;&gt;单例工厂是否可用&lt;/font&gt;" style="rhombus;whiteSpace=wrap;html=1;sketch=1;curveFitting=1;jiggle=2;" parent="WIyWlLk6GJQsqaUBKTNV-1" vertex="1">
          <mxGeometry x="-394.37" y="589" width="178.75" height="80" as="geometry" />
        </mxCell>
        <mxCell id="w9YTLLDqz4IBOpA_Bn1p-10" value="&lt;font style=&quot;font-size: 14px;&quot; face=&quot;Comic Sans MS&quot;&gt;Exception&lt;/font&gt;" style="rounded=0;whiteSpace=wrap;html=1;sketch=1;curveFitting=1;jiggle=2;" parent="WIyWlLk6GJQsqaUBKTNV-1" vertex="1">
          <mxGeometry x="-125" y="599" width="120" height="60" as="geometry" />
        </mxCell>
        <mxCell id="w9YTLLDqz4IBOpA_Bn1p-14" style="edgeStyle=orthogonalEdgeStyle;rounded=0;orthogonalLoop=1;jettySize=auto;html=1;exitX=0.5;exitY=1;exitDx=0;exitDy=0;sketch=1;curveFitting=1;jiggle=2;entryX=0.5;entryY=0;entryDx=0;entryDy=0;" parent="WIyWlLk6GJQsqaUBKTNV-1" source="w9YTLLDqz4IBOpA_Bn1p-13" target="w9YTLLDqz4IBOpA_Bn1p-15" edge="1">
          <mxGeometry relative="1" as="geometry">
            <mxPoint x="-307" y="839" as="targetPoint" />
          </mxGeometry>
        </mxCell>
        <mxCell id="w9YTLLDqz4IBOpA_Bn1p-13" value="&lt;font style=&quot;font-size: 14px;&quot; face=&quot;Comic Sans MS&quot;&gt;将 bean 标记为创建中状态&lt;/font&gt;" style="rounded=1;whiteSpace=wrap;html=1;sketch=1;curveFitting=1;jiggle=2;" parent="WIyWlLk6GJQsqaUBKTNV-1" vertex="1">
          <mxGeometry x="-399.63" y="719" width="184" height="40" as="geometry" />
        </mxCell>
        <mxCell id="w9YTLLDqz4IBOpA_Bn1p-16" style="edgeStyle=orthogonalEdgeStyle;rounded=0;orthogonalLoop=1;jettySize=auto;html=1;exitX=0.5;exitY=1;exitDx=0;exitDy=0;sketch=1;curveFitting=1;jiggle=2;entryX=0.5;entryY=0;entryDx=0;entryDy=0;" parent="WIyWlLk6GJQsqaUBKTNV-1" source="w9YTLLDqz4IBOpA_Bn1p-15" target="w9YTLLDqz4IBOpA_Bn1p-18" edge="1">
          <mxGeometry relative="1" as="geometry">
            <mxPoint x="-307.909090909091" y="929" as="targetPoint" />
          </mxGeometry>
        </mxCell>
        <mxCell id="w9YTLLDqz4IBOpA_Bn1p-27" value="拿到结果" style="edgeLabel;html=1;align=center;verticalAlign=middle;resizable=0;points=[];" parent="w9YTLLDqz4IBOpA_Bn1p-16" vertex="1" connectable="0">
          <mxGeometry x="-0.0505" y="5" relative="1" as="geometry">
            <mxPoint y="-1" as="offset" />
          </mxGeometry>
        </mxCell>
        <mxCell id="w9YTLLDqz4IBOpA_Bn1p-28" style="edgeStyle=orthogonalEdgeStyle;rounded=0;orthogonalLoop=1;jettySize=auto;html=1;exitX=1;exitY=0.5;exitDx=0;exitDy=0;sketch=1;curveFitting=1;jiggle=2;jumpSize=13;jumpStyle=arc;entryX=0;entryY=0.25;entryDx=0;entryDy=0;" parent="WIyWlLk6GJQsqaUBKTNV-1" source="w9YTLLDqz4IBOpA_Bn1p-15" target="NqXv0ei1hqFi60krSDiM-106" edge="1">
          <mxGeometry relative="1" as="geometry">
            <Array as="points">
              <mxPoint x="50" y="839" />
              <mxPoint x="50" y="30" />
              <mxPoint x="1660" y="30" />
              <mxPoint x="1660" y="105" />
            </Array>
            <mxPoint x="2.369999999999891" y="868.9000000000001" as="sourcePoint" />
            <mxPoint x="2481.5" y="134.92000000000002" as="targetPoint" />
          </mxGeometry>
        </mxCell>
        <mxCell id="w9YTLLDqz4IBOpA_Bn1p-15" value="&lt;font style=&quot;font-size: 14px;&quot; face=&quot;Comic Sans MS&quot;&gt;createBean&lt;/font&gt;" style="shape=process;whiteSpace=wrap;html=1;backgroundOutline=1;sketch=1;curveFitting=1;jiggle=2;" parent="WIyWlLk6GJQsqaUBKTNV-1" vertex="1">
          <mxGeometry x="-367.63" y="809" width="120" height="60" as="geometry" />
        </mxCell>
        <mxCell id="w9YTLLDqz4IBOpA_Bn1p-19" style="edgeStyle=orthogonalEdgeStyle;rounded=0;orthogonalLoop=1;jettySize=auto;html=1;exitX=0.5;exitY=1;exitDx=0;exitDy=0;sketch=1;curveFitting=1;jiggle=2;" parent="WIyWlLk6GJQsqaUBKTNV-1" source="w9YTLLDqz4IBOpA_Bn1p-18" target="w9YTLLDqz4IBOpA_Bn1p-21" edge="1">
          <mxGeometry relative="1" as="geometry">
            <mxPoint x="-307.909090909091" y="1039" as="targetPoint" />
          </mxGeometry>
        </mxCell>
        <mxCell id="w9YTLLDqz4IBOpA_Bn1p-18" value="&lt;font face=&quot;Comic Sans MS&quot; style=&quot;font-size: 14px;&quot;&gt;将当前 bean 从创建中移除&lt;/font&gt;" style="rounded=1;whiteSpace=wrap;html=1;sketch=1;curveFitting=1;jiggle=2;" parent="WIyWlLk6GJQsqaUBKTNV-1" vertex="1">
          <mxGeometry x="-391.63" y="939" width="168" height="60" as="geometry" />
        </mxCell>
        <mxCell id="w9YTLLDqz4IBOpA_Bn1p-31" style="edgeStyle=orthogonalEdgeStyle;rounded=0;orthogonalLoop=1;jettySize=auto;html=1;exitX=0.5;exitY=1;exitDx=0;exitDy=0;entryX=0.5;entryY=0;entryDx=0;entryDy=0;shadow=0;sketch=1;curveFitting=1;jiggle=2;" parent="WIyWlLk6GJQsqaUBKTNV-1" source="w9YTLLDqz4IBOpA_Bn1p-21" target="w9YTLLDqz4IBOpA_Bn1p-29" edge="1">
          <mxGeometry relative="1" as="geometry" />
        </mxCell>
        <mxCell id="w9YTLLDqz4IBOpA_Bn1p-21" value="&lt;font face=&quot;Comic Sans MS&quot; style=&quot;font-size: 14px;&quot;&gt;addSingleton&lt;/font&gt;" style="shape=process;whiteSpace=wrap;html=1;backgroundOutline=1;sketch=1;curveFitting=1;jiggle=2;" parent="WIyWlLk6GJQsqaUBKTNV-1" vertex="1">
          <mxGeometry x="-367.63" y="1039" width="120" height="60" as="geometry" />
        </mxCell>
        <mxCell id="w9YTLLDqz4IBOpA_Bn1p-32" style="edgeStyle=orthogonalEdgeStyle;rounded=0;orthogonalLoop=1;jettySize=auto;html=1;exitX=0.5;exitY=1;exitDx=0;exitDy=0;sketch=1;curveFitting=1;jiggle=2;" parent="WIyWlLk6GJQsqaUBKTNV-1" source="w9YTLLDqz4IBOpA_Bn1p-29" target="w9YTLLDqz4IBOpA_Bn1p-33" edge="1">
          <mxGeometry relative="1" as="geometry">
            <mxPoint x="-307.4117647058822" y="1280" as="targetPoint" />
          </mxGeometry>
        </mxCell>
        <mxCell id="w9YTLLDqz4IBOpA_Bn1p-29" value="&lt;font style=&quot;font-size: 14px;&quot; face=&quot;Comic Sans MS&quot;&gt;addSingleton&lt;/font&gt;&lt;font face=&quot;Comic Sans MS&quot;&gt;(String beanName, Object singletonObject)&lt;/font&gt;" style="rounded=1;whiteSpace=wrap;html=1;sketch=1;curveFitting=1;jiggle=2;fillColor=#f8cecc;strokeColor=#b85450;" parent="WIyWlLk6GJQsqaUBKTNV-1" vertex="1">
          <mxGeometry x="-486.94" y="1175" width="358.63" height="60" as="geometry" />
        </mxCell>
        <mxCell id="w9YTLLDqz4IBOpA_Bn1p-38" style="edgeStyle=orthogonalEdgeStyle;rounded=0;orthogonalLoop=1;jettySize=auto;html=1;exitX=0.5;exitY=1;exitDx=0;exitDy=0;entryX=0.5;entryY=0;entryDx=0;entryDy=0;sketch=1;curveFitting=1;jiggle=2;" parent="WIyWlLk6GJQsqaUBKTNV-1" source="w9YTLLDqz4IBOpA_Bn1p-33" target="w9YTLLDqz4IBOpA_Bn1p-34" edge="1">
          <mxGeometry relative="1" as="geometry" />
        </mxCell>
        <mxCell id="w9YTLLDqz4IBOpA_Bn1p-33" value="&lt;font style=&quot;font-size: 14px;&quot;&gt;锁住一级缓存&lt;/font&gt;" style="rounded=0;whiteSpace=wrap;html=1;sketch=1;curveFitting=1;jiggle=2;" parent="WIyWlLk6GJQsqaUBKTNV-1" vertex="1">
          <mxGeometry x="-367.63" y="1290" width="120" height="50" as="geometry" />
        </mxCell>
        <mxCell id="w9YTLLDqz4IBOpA_Bn1p-39" style="edgeStyle=orthogonalEdgeStyle;rounded=0;orthogonalLoop=1;jettySize=auto;html=1;exitX=0.5;exitY=1;exitDx=0;exitDy=0;entryX=0.5;entryY=0;entryDx=0;entryDy=0;sketch=1;curveFitting=1;jiggle=2;" parent="WIyWlLk6GJQsqaUBKTNV-1" source="w9YTLLDqz4IBOpA_Bn1p-34" target="w9YTLLDqz4IBOpA_Bn1p-35" edge="1">
          <mxGeometry relative="1" as="geometry" />
        </mxCell>
        <mxCell id="w9YTLLDqz4IBOpA_Bn1p-34" value="&lt;font style=&quot;font-size: 14px;&quot;&gt;将实例存入一级缓存&lt;/font&gt;" style="rounded=0;whiteSpace=wrap;html=1;sketch=1;curveFitting=1;jiggle=2;" parent="WIyWlLk6GJQsqaUBKTNV-1" vertex="1">
          <mxGeometry x="-383.63" y="1360" width="160" height="50" as="geometry" />
        </mxCell>
        <mxCell id="w9YTLLDqz4IBOpA_Bn1p-40" style="edgeStyle=orthogonalEdgeStyle;rounded=0;orthogonalLoop=1;jettySize=auto;html=1;exitX=0.5;exitY=1;exitDx=0;exitDy=0;entryX=0.5;entryY=0;entryDx=0;entryDy=0;sketch=1;curveFitting=1;jiggle=2;" parent="WIyWlLk6GJQsqaUBKTNV-1" source="w9YTLLDqz4IBOpA_Bn1p-35" target="w9YTLLDqz4IBOpA_Bn1p-36" edge="1">
          <mxGeometry relative="1" as="geometry" />
        </mxCell>
        <mxCell id="w9YTLLDqz4IBOpA_Bn1p-35" value="&lt;font style=&quot;font-size: 14px;&quot;&gt;将实例存从三级缓存移除&lt;/font&gt;" style="rounded=0;whiteSpace=wrap;html=1;sketch=1;curveFitting=1;jiggle=2;" parent="WIyWlLk6GJQsqaUBKTNV-1" vertex="1">
          <mxGeometry x="-389.99" y="1440" width="170" height="50" as="geometry" />
        </mxCell>
        <mxCell id="w9YTLLDqz4IBOpA_Bn1p-41" style="edgeStyle=orthogonalEdgeStyle;rounded=0;orthogonalLoop=1;jettySize=auto;html=1;exitX=0.5;exitY=1;exitDx=0;exitDy=0;entryX=0.5;entryY=0;entryDx=0;entryDy=0;sketch=1;curveFitting=1;jiggle=2;" parent="WIyWlLk6GJQsqaUBKTNV-1" source="w9YTLLDqz4IBOpA_Bn1p-36" target="w9YTLLDqz4IBOpA_Bn1p-37" edge="1">
          <mxGeometry relative="1" as="geometry" />
        </mxCell>
        <mxCell id="w9YTLLDqz4IBOpA_Bn1p-36" value="&lt;font style=&quot;font-size: 14px;&quot;&gt;将实例存从二级缓存移除&lt;/font&gt;" style="rounded=0;whiteSpace=wrap;html=1;sketch=1;curveFitting=1;jiggle=2;" parent="WIyWlLk6GJQsqaUBKTNV-1" vertex="1">
          <mxGeometry x="-388.63" y="1515" width="170" height="50" as="geometry" />
        </mxCell>
        <mxCell id="w9YTLLDqz4IBOpA_Bn1p-37" value="&lt;span style=&quot;font-size: 14px;&quot;&gt;&lt;font face=&quot;Comic Sans MS&quot;&gt;将 bean 标记为已创建&lt;/font&gt;&lt;/span&gt;" style="rounded=0;whiteSpace=wrap;html=1;sketch=1;curveFitting=1;jiggle=2;" parent="WIyWlLk6GJQsqaUBKTNV-1" vertex="1">
          <mxGeometry x="-385.63" y="1590" width="170" height="50" as="geometry" />
        </mxCell>
        <mxCell id="w9YTLLDqz4IBOpA_Bn1p-46" style="edgeStyle=orthogonalEdgeStyle;rounded=0;orthogonalLoop=1;jettySize=auto;html=1;exitX=0.5;exitY=1;exitDx=0;exitDy=0;sketch=1;curveFitting=1;jiggle=2;entryX=0.5;entryY=0;entryDx=0;entryDy=0;" parent="WIyWlLk6GJQsqaUBKTNV-1" source="w9YTLLDqz4IBOpA_Bn1p-42" target="w9YTLLDqz4IBOpA_Bn1p-43" edge="1">
          <mxGeometry relative="1" as="geometry">
            <mxPoint x="-1070" y="2520" as="targetPoint" />
            <Array as="points">
              <mxPoint x="-590" y="2420" />
              <mxPoint x="516" y="2420" />
              <mxPoint x="516" y="1480" />
              <mxPoint x="768" y="1480" />
            </Array>
          </mxGeometry>
        </mxCell>
        <mxCell id="w9YTLLDqz4IBOpA_Bn1p-42" value="&lt;font face=&quot;Comic Sans MS&quot; style=&quot;font-size: 14px;&quot;&gt;getEarlyBeanReference&lt;/font&gt;" style="shape=process;whiteSpace=wrap;html=1;backgroundOutline=1;sketch=1;curveFitting=1;jiggle=2;" parent="WIyWlLk6GJQsqaUBKTNV-1" vertex="1">
          <mxGeometry x="-713" y="1410" width="245" height="60" as="geometry" />
        </mxCell>
        <mxCell id="w9YTLLDqz4IBOpA_Bn1p-44" style="edgeStyle=orthogonalEdgeStyle;rounded=0;orthogonalLoop=1;jettySize=auto;html=1;exitX=0.5;exitY=1;exitDx=0;exitDy=0;sketch=1;curveFitting=1;jiggle=2;" parent="WIyWlLk6GJQsqaUBKTNV-1" source="w9YTLLDqz4IBOpA_Bn1p-43" target="w9YTLLDqz4IBOpA_Bn1p-45" edge="1">
          <mxGeometry relative="1" as="geometry">
            <mxPoint x="767.6190476190477" y="1665" as="targetPoint" />
          </mxGeometry>
        </mxCell>
        <mxCell id="w9YTLLDqz4IBOpA_Bn1p-43" value="&lt;font face=&quot;Comic Sans MS&quot; style=&quot;font-size: 14px;&quot;&gt;getEarlyBeanReference&lt;/font&gt;" style="rounded=1;whiteSpace=wrap;html=1;sketch=1;curveFitting=1;jiggle=2;fillColor=#f8cecc;strokeColor=#b85450;" parent="WIyWlLk6GJQsqaUBKTNV-1" vertex="1">
          <mxGeometry x="663" y="1545" width="210" height="60" as="geometry" />
        </mxCell>
        <mxCell id="w9YTLLDqz4IBOpA_Bn1p-47" style="edgeStyle=orthogonalEdgeStyle;rounded=0;orthogonalLoop=1;jettySize=auto;html=1;exitX=0.5;exitY=1;exitDx=0;exitDy=0;sketch=1;curveFitting=1;jiggle=2;entryX=0.5;entryY=0;entryDx=0;entryDy=0;" parent="WIyWlLk6GJQsqaUBKTNV-1" source="w9YTLLDqz4IBOpA_Bn1p-45" target="w9YTLLDqz4IBOpA_Bn1p-48" edge="1">
          <mxGeometry relative="1" as="geometry">
            <mxPoint x="767.931818181818" y="1845" as="targetPoint" />
          </mxGeometry>
        </mxCell>
        <mxCell id="w9YTLLDqz4IBOpA_Bn1p-45" value="&lt;font style=&quot;font-size: 16px;&quot;&gt;&lt;font face=&quot;Comic Sans MS&quot; style=&quot;font-size: 16px;&quot;&gt;SmartInstantiationAwareBeanPostProcessor 实现的&amp;nbsp;&lt;/font&gt;&lt;font style=&quot;font-size: 16px;&quot; face=&quot;Comic Sans MS&quot;&gt;getEarlyBeanReference&lt;/font&gt; 回调&lt;/font&gt;" style="rounded=0;whiteSpace=wrap;html=1;sketch=1;curveFitting=1;jiggle=2;" parent="WIyWlLk6GJQsqaUBKTNV-1" vertex="1">
          <mxGeometry x="591.75" y="1675" width="352.5" height="60" as="geometry" />
        </mxCell>
        <mxCell id="w9YTLLDqz4IBOpA_Bn1p-53" style="edgeStyle=orthogonalEdgeStyle;rounded=0;orthogonalLoop=1;jettySize=auto;html=1;exitX=0.5;exitY=1;exitDx=0;exitDy=0;sketch=1;curveFitting=1;jiggle=2;" parent="WIyWlLk6GJQsqaUBKTNV-1" source="w9YTLLDqz4IBOpA_Bn1p-48" target="w9YTLLDqz4IBOpA_Bn1p-50" edge="1">
          <mxGeometry relative="1" as="geometry" />
        </mxCell>
        <mxCell id="Q4ZqcIHXgOIeblmxRWBi-2" style="edgeStyle=orthogonalEdgeStyle;rounded=0;orthogonalLoop=1;jettySize=auto;html=1;exitX=1;exitY=0.5;exitDx=0;exitDy=0;sketch=1;curveFitting=1;jiggle=2;entryX=0;entryY=0.5;entryDx=0;entryDy=0;" parent="WIyWlLk6GJQsqaUBKTNV-1" source="w9YTLLDqz4IBOpA_Bn1p-48" target="Q4ZqcIHXgOIeblmxRWBi-3" edge="1">
          <mxGeometry relative="1" as="geometry">
            <mxPoint x="1540.5" y="1805" as="targetPoint" />
          </mxGeometry>
        </mxCell>
        <mxCell id="w9YTLLDqz4IBOpA_Bn1p-48" value="&lt;font face=&quot;Comic Sans MS&quot; style=&quot;font-size: 14px;&quot;&gt;AutowiredAnnotationBeanPostProcessor&lt;/font&gt;" style="shape=process;whiteSpace=wrap;html=1;backgroundOutline=1;sketch=1;curveFitting=1;jiggle=2;fillColor=#e1d5e7;strokeColor=#9673a6;" parent="WIyWlLk6GJQsqaUBKTNV-1" vertex="1">
          <mxGeometry x="598" y="1790" width="340" height="60" as="geometry" />
        </mxCell>
        <mxCell id="w9YTLLDqz4IBOpA_Bn1p-54" style="edgeStyle=orthogonalEdgeStyle;rounded=0;orthogonalLoop=1;jettySize=auto;html=1;exitX=1;exitY=0.5;exitDx=0;exitDy=0;entryX=0;entryY=0.5;entryDx=0;entryDy=0;sketch=1;curveFitting=1;jiggle=2;" parent="WIyWlLk6GJQsqaUBKTNV-1" source="w9YTLLDqz4IBOpA_Bn1p-50" target="Q4ZqcIHXgOIeblmxRWBi-6" edge="1">
          <mxGeometry relative="1" as="geometry">
            <mxPoint x="1391.75" y="1935.3333333333335" as="targetPoint" />
            <Array as="points">
              <mxPoint x="1510" y="1949" />
              <mxPoint x="1510" y="1580" />
            </Array>
          </mxGeometry>
        </mxCell>
        <mxCell id="w9YTLLDqz4IBOpA_Bn1p-50" value="&lt;font style=&quot;font-size: 14px;&quot; face=&quot;Comic Sans MS&quot;&gt;InfrastructureAdvisorAutoProxyCreator&lt;/font&gt;" style="shape=process;whiteSpace=wrap;html=1;backgroundOutline=1;sketch=1;curveFitting=1;jiggle=2;fillColor=#e1d5e7;strokeColor=#9673a6;" parent="WIyWlLk6GJQsqaUBKTNV-1" vertex="1">
          <mxGeometry x="591.75" y="1919" width="353.75" height="60" as="geometry" />
        </mxCell>
        <mxCell id="w9YTLLDqz4IBOpA_Bn1p-56" value="&lt;font face=&quot;Comic Sans MS&quot; style=&quot;font-size: 15px;&quot;&gt;AbstractAutoProxyCreator&lt;/font&gt;" style="text;html=1;strokeColor=none;fillColor=none;align=center;verticalAlign=middle;whiteSpace=wrap;rounded=0;" parent="WIyWlLk6GJQsqaUBKTNV-1" vertex="1">
          <mxGeometry x="1712" y="1490" width="230" height="30" as="geometry" />
        </mxCell>
        <mxCell id="Q4ZqcIHXgOIeblmxRWBi-0" value="&lt;font style=&quot;font-size: 15px;&quot; face=&quot;Comic Sans MS&quot;&gt;SmartInstantiationAwareBeanPostProcessor&lt;/font&gt;" style="text;html=1;strokeColor=none;fillColor=none;align=center;verticalAlign=middle;whiteSpace=wrap;rounded=0;" parent="WIyWlLk6GJQsqaUBKTNV-1" vertex="1">
          <mxGeometry x="1120" y="1495" width="320" height="30" as="geometry" />
        </mxCell>
        <mxCell id="Q4ZqcIHXgOIeblmxRWBi-5" style="edgeStyle=orthogonalEdgeStyle;rounded=0;orthogonalLoop=1;jettySize=auto;html=1;exitX=0.5;exitY=1;exitDx=0;exitDy=0;sketch=1;curveFitting=1;jiggle=2;" parent="WIyWlLk6GJQsqaUBKTNV-1" source="Q4ZqcIHXgOIeblmxRWBi-3" target="Q4ZqcIHXgOIeblmxRWBi-4" edge="1">
          <mxGeometry relative="1" as="geometry" />
        </mxCell>
        <mxCell id="Q4ZqcIHXgOIeblmxRWBi-3" value="&lt;font face=&quot;Comic Sans MS&quot;&gt;&lt;font style=&quot;font-size: 14px;&quot;&gt;getEarlyBeanReference&lt;/font&gt;&lt;font style=&quot;font-size: 12px;&quot;&gt;(Object bean, String beanName)&lt;/font&gt;&lt;/font&gt;" style="rounded=1;whiteSpace=wrap;html=1;fillColor=#f8cecc;strokeColor=#b85450;sketch=1;curveFitting=1;jiggle=2;" parent="WIyWlLk6GJQsqaUBKTNV-1" vertex="1">
          <mxGeometry x="1070" y="1550" width="400" height="60" as="geometry" />
        </mxCell>
        <mxCell id="Q4ZqcIHXgOIeblmxRWBi-4" value="&lt;font style=&quot;font-size: 14px;&quot; face=&quot;Comic Sans MS&quot;&gt;原样返回 bean&lt;/font&gt;" style="rounded=0;whiteSpace=wrap;html=1;sketch=1;curveFitting=1;jiggle=2;" parent="WIyWlLk6GJQsqaUBKTNV-1" vertex="1">
          <mxGeometry x="1180" y="1680" width="180" height="60" as="geometry" />
        </mxCell>
        <mxCell id="Q4ZqcIHXgOIeblmxRWBi-7" style="edgeStyle=orthogonalEdgeStyle;rounded=0;orthogonalLoop=1;jettySize=auto;html=1;exitX=0.5;exitY=1;exitDx=0;exitDy=0;sketch=1;curveFitting=1;jiggle=2;" parent="WIyWlLk6GJQsqaUBKTNV-1" source="Q4ZqcIHXgOIeblmxRWBi-6" target="Q4ZqcIHXgOIeblmxRWBi-8" edge="1">
          <mxGeometry relative="1" as="geometry">
            <mxPoint x="1881.7058823529414" y="1670" as="targetPoint" />
          </mxGeometry>
        </mxCell>
        <mxCell id="Q4ZqcIHXgOIeblmxRWBi-6" value="&lt;font face=&quot;Comic Sans MS&quot;&gt;&lt;font style=&quot;font-size: 14px;&quot;&gt;getEarlyBeanReference&lt;/font&gt;&lt;font style=&quot;font-size: 12px;&quot;&gt;(Object bean, String beanName)&lt;/font&gt;&lt;/font&gt;" style="rounded=1;whiteSpace=wrap;html=1;fillColor=#f8cecc;strokeColor=#b85450;sketch=1;curveFitting=1;jiggle=2;" parent="WIyWlLk6GJQsqaUBKTNV-1" vertex="1">
          <mxGeometry x="1682" y="1550" width="400" height="60" as="geometry" />
        </mxCell>
        <mxCell id="Q4ZqcIHXgOIeblmxRWBi-9" style="edgeStyle=orthogonalEdgeStyle;rounded=0;orthogonalLoop=1;jettySize=auto;html=1;exitX=0.5;exitY=1;exitDx=0;exitDy=0;sketch=1;curveFitting=1;jiggle=2;" parent="WIyWlLk6GJQsqaUBKTNV-1" source="Q4ZqcIHXgOIeblmxRWBi-8" target="Q4ZqcIHXgOIeblmxRWBi-10" edge="1">
          <mxGeometry relative="1" as="geometry">
            <mxPoint x="1881.7058823529414" y="1820" as="targetPoint" />
          </mxGeometry>
        </mxCell>
        <mxCell id="Q4ZqcIHXgOIeblmxRWBi-8" value="&lt;font face=&quot;Comic Sans MS&quot; style=&quot;font-size: 14px;&quot;&gt;保存当前 bean 对象到代理引用缓存&lt;/font&gt;" style="rounded=0;whiteSpace=wrap;html=1;sketch=1;curveFitting=1;jiggle=2;" parent="WIyWlLk6GJQsqaUBKTNV-1" vertex="1">
          <mxGeometry x="1762" y="1680" width="240" height="60" as="geometry" />
        </mxCell>
        <mxCell id="Q4ZqcIHXgOIeblmxRWBi-12" style="edgeStyle=orthogonalEdgeStyle;rounded=0;orthogonalLoop=1;jettySize=auto;html=1;exitX=0.5;exitY=1;exitDx=0;exitDy=0;sketch=1;curveFitting=1;jiggle=2;" parent="WIyWlLk6GJQsqaUBKTNV-1" source="Q4ZqcIHXgOIeblmxRWBi-10" target="Q4ZqcIHXgOIeblmxRWBi-11" edge="1">
          <mxGeometry relative="1" as="geometry" />
        </mxCell>
        <mxCell id="Q4ZqcIHXgOIeblmxRWBi-10" value="&lt;font face=&quot;Comic Sans MS&quot; style=&quot;font-size: 14px;&quot;&gt;wrapIfNecessary&lt;/font&gt;" style="shape=process;whiteSpace=wrap;html=1;backgroundOutline=1;sketch=1;curveFitting=1;jiggle=2;" parent="WIyWlLk6GJQsqaUBKTNV-1" vertex="1">
          <mxGeometry x="1792" y="1805" width="180" height="60" as="geometry" />
        </mxCell>
        <mxCell id="Q4ZqcIHXgOIeblmxRWBi-15" style="edgeStyle=orthogonalEdgeStyle;rounded=0;orthogonalLoop=1;jettySize=auto;html=1;exitX=0.5;exitY=1;exitDx=0;exitDy=0;entryX=0.5;entryY=0;entryDx=0;entryDy=0;sketch=1;curveFitting=1;jiggle=2;" parent="WIyWlLk6GJQsqaUBKTNV-1" source="Q4ZqcIHXgOIeblmxRWBi-11" target="Q4ZqcIHXgOIeblmxRWBi-14" edge="1">
          <mxGeometry relative="1" as="geometry" />
        </mxCell>
        <mxCell id="Q4ZqcIHXgOIeblmxRWBi-11" value="&lt;font style=&quot;&quot; face=&quot;Comic Sans MS&quot;&gt;&lt;font style=&quot;font-size: 14px;&quot;&gt;wrapIfNecessary&lt;/font&gt;&lt;span style=&quot;font-size: 13px;&quot;&gt;(Object bean, String beanName, Object cacheKey)&lt;/span&gt;&lt;/font&gt;" style="rounded=1;whiteSpace=wrap;html=1;fillColor=#f8cecc;strokeColor=#b85450;sketch=1;curveFitting=1;jiggle=2;" parent="WIyWlLk6GJQsqaUBKTNV-1" vertex="1">
          <mxGeometry x="1662" y="1934" width="440" height="60" as="geometry" />
        </mxCell>
        <mxCell id="Q4ZqcIHXgOIeblmxRWBi-19" style="edgeStyle=orthogonalEdgeStyle;rounded=0;orthogonalLoop=1;jettySize=auto;html=1;exitX=1;exitY=0.5;exitDx=0;exitDy=0;entryX=0;entryY=0.5;entryDx=0;entryDy=0;sketch=1;curveFitting=1;jiggle=2;" parent="WIyWlLk6GJQsqaUBKTNV-1" source="Q4ZqcIHXgOIeblmxRWBi-14" target="Q4ZqcIHXgOIeblmxRWBi-18" edge="1">
          <mxGeometry relative="1" as="geometry" />
        </mxCell>
        <mxCell id="Q4ZqcIHXgOIeblmxRWBi-20" value="&lt;font face=&quot;Comic Sans MS&quot;&gt;Yes&lt;/font&gt;" style="edgeLabel;html=1;align=center;verticalAlign=middle;resizable=0;points=[];" parent="Q4ZqcIHXgOIeblmxRWBi-19" vertex="1" connectable="0">
          <mxGeometry x="-0.0804" y="-1" relative="1" as="geometry">
            <mxPoint as="offset" />
          </mxGeometry>
        </mxCell>
        <mxCell id="Q4ZqcIHXgOIeblmxRWBi-22" value="&lt;font face=&quot;Comic Sans MS&quot;&gt;No&lt;/font&gt;" style="edgeStyle=orthogonalEdgeStyle;rounded=0;orthogonalLoop=1;jettySize=auto;html=1;exitX=0.5;exitY=1;exitDx=0;exitDy=0;sketch=1;curveFitting=1;jiggle=2;entryX=0.5;entryY=0;entryDx=0;entryDy=0;" parent="WIyWlLk6GJQsqaUBKTNV-1" source="Q4ZqcIHXgOIeblmxRWBi-14" target="Q4ZqcIHXgOIeblmxRWBi-23" edge="1">
          <mxGeometry relative="1" as="geometry">
            <mxPoint x="1882.0967741935483" y="2200" as="targetPoint" />
          </mxGeometry>
        </mxCell>
        <mxCell id="Q4ZqcIHXgOIeblmxRWBi-14" value="&lt;font face=&quot;Comic Sans MS&quot; style=&quot;font-size: 14px;&quot;&gt;是否是&amp;nbsp;TargetSource&amp;nbsp;&lt;/font&gt;" style="rhombus;whiteSpace=wrap;html=1;sketch=1;curveFitting=1;jiggle=2;" parent="WIyWlLk6GJQsqaUBKTNV-1" vertex="1">
          <mxGeometry x="1772" y="2060" width="220" height="80" as="geometry" />
        </mxCell>
        <mxCell id="Q4ZqcIHXgOIeblmxRWBi-18" value="原样返回" style="rounded=0;whiteSpace=wrap;html=1;sketch=1;curveFitting=1;jiggle=2;" parent="WIyWlLk6GJQsqaUBKTNV-1" vertex="1">
          <mxGeometry x="2207" y="2070" width="120" height="60" as="geometry" />
        </mxCell>
        <mxCell id="Q4ZqcIHXgOIeblmxRWBi-21" style="edgeStyle=orthogonalEdgeStyle;rounded=0;orthogonalLoop=1;jettySize=auto;html=1;exitX=0.5;exitY=0;exitDx=0;exitDy=0;entryX=1;entryY=0.425;entryDx=0;entryDy=0;entryPerimeter=0;sketch=1;curveFitting=1;jiggle=2;" parent="WIyWlLk6GJQsqaUBKTNV-1" source="Q4ZqcIHXgOIeblmxRWBi-18" target="Q4ZqcIHXgOIeblmxRWBi-11" edge="1">
          <mxGeometry relative="1" as="geometry" />
        </mxCell>
        <mxCell id="Q4ZqcIHXgOIeblmxRWBi-29" style="edgeStyle=orthogonalEdgeStyle;rounded=0;orthogonalLoop=1;jettySize=auto;html=1;exitX=1;exitY=0.5;exitDx=0;exitDy=0;sketch=1;curveFitting=1;jiggle=2;" parent="WIyWlLk6GJQsqaUBKTNV-1" source="Q4ZqcIHXgOIeblmxRWBi-23" edge="1">
          <mxGeometry relative="1" as="geometry">
            <mxPoint x="2192" y="2235.322580645161" as="targetPoint" />
          </mxGeometry>
        </mxCell>
        <mxCell id="Q4ZqcIHXgOIeblmxRWBi-30" value="&lt;font face=&quot;Comic Sans MS&quot;&gt;Yes&lt;/font&gt;" style="edgeLabel;html=1;align=center;verticalAlign=middle;resizable=0;points=[];" parent="Q4ZqcIHXgOIeblmxRWBi-29" vertex="1" connectable="0">
          <mxGeometry x="-0.2062" y="-1" relative="1" as="geometry">
            <mxPoint as="offset" />
          </mxGeometry>
        </mxCell>
        <mxCell id="Q4ZqcIHXgOIeblmxRWBi-34" style="edgeStyle=orthogonalEdgeStyle;rounded=0;orthogonalLoop=1;jettySize=auto;html=1;exitX=0.5;exitY=1;exitDx=0;exitDy=0;sketch=1;curveFitting=1;jiggle=2;" parent="WIyWlLk6GJQsqaUBKTNV-1" source="Q4ZqcIHXgOIeblmxRWBi-23" target="Q4ZqcIHXgOIeblmxRWBi-33" edge="1">
          <mxGeometry relative="1" as="geometry" />
        </mxCell>
        <mxCell id="Q4ZqcIHXgOIeblmxRWBi-35" value="&lt;font face=&quot;Comic Sans MS&quot;&gt;No&lt;/font&gt;" style="edgeLabel;html=1;align=center;verticalAlign=middle;resizable=0;points=[];" parent="Q4ZqcIHXgOIeblmxRWBi-34" vertex="1" connectable="0">
          <mxGeometry x="-0.2377" relative="1" as="geometry">
            <mxPoint as="offset" />
          </mxGeometry>
        </mxCell>
        <mxCell id="Q4ZqcIHXgOIeblmxRWBi-23" value="&lt;font face=&quot;Comic Sans MS&quot; style=&quot;font-size: 14px;&quot;&gt;是否是 Aop 相关基础 bean 或是否需要跳过当前 bean&lt;/font&gt;" style="rhombus;whiteSpace=wrap;html=1;sketch=1;curveFitting=1;jiggle=2;" parent="WIyWlLk6GJQsqaUBKTNV-1" vertex="1">
          <mxGeometry x="1682" y="2180" width="400" height="110" as="geometry" />
        </mxCell>
        <mxCell id="Q4ZqcIHXgOIeblmxRWBi-32" style="edgeStyle=orthogonalEdgeStyle;rounded=0;orthogonalLoop=1;jettySize=auto;html=1;exitX=0.5;exitY=0;exitDx=0;exitDy=0;sketch=1;curveFitting=1;jiggle=2;" parent="WIyWlLk6GJQsqaUBKTNV-1" source="Q4ZqcIHXgOIeblmxRWBi-31" target="Q4ZqcIHXgOIeblmxRWBi-18" edge="1">
          <mxGeometry relative="1" as="geometry" />
        </mxCell>
        <mxCell id="Q4ZqcIHXgOIeblmxRWBi-31" value="&lt;font face=&quot;Comic Sans MS&quot; style=&quot;font-size: 14px;&quot;&gt;登记当前 &lt;font style=&quot;font-size: 14px;&quot;&gt;bean&lt;/font&gt; 并非增强 bean&lt;/font&gt;" style="rounded=0;whiteSpace=wrap;html=1;sketch=1;curveFitting=1;jiggle=2;" parent="WIyWlLk6GJQsqaUBKTNV-1" vertex="1">
          <mxGeometry x="2192" y="2205" width="150" height="60" as="geometry" />
        </mxCell>
        <mxCell id="Q4ZqcIHXgOIeblmxRWBi-36" style="edgeStyle=orthogonalEdgeStyle;rounded=0;orthogonalLoop=1;jettySize=auto;html=1;exitX=1;exitY=0.5;exitDx=0;exitDy=0;entryX=0.5;entryY=1;entryDx=0;entryDy=0;sketch=1;curveFitting=1;jiggle=2;" parent="WIyWlLk6GJQsqaUBKTNV-1" source="Q4ZqcIHXgOIeblmxRWBi-33" target="Q4ZqcIHXgOIeblmxRWBi-31" edge="1">
          <mxGeometry relative="1" as="geometry">
            <mxPoint x="2152" y="2415.181818181818" as="targetPoint" />
          </mxGeometry>
        </mxCell>
        <mxCell id="Q4ZqcIHXgOIeblmxRWBi-37" value="&lt;font face=&quot;Comic Sans MS&quot;&gt;No&lt;/font&gt;" style="edgeLabel;html=1;align=center;verticalAlign=middle;resizable=0;points=[];" parent="Q4ZqcIHXgOIeblmxRWBi-36" vertex="1" connectable="0">
          <mxGeometry x="-0.238" relative="1" as="geometry">
            <mxPoint as="offset" />
          </mxGeometry>
        </mxCell>
        <mxCell id="Q4ZqcIHXgOIeblmxRWBi-38" value="&lt;font face=&quot;Comic Sans MS&quot;&gt;Yes&lt;/font&gt;" style="edgeStyle=orthogonalEdgeStyle;rounded=0;orthogonalLoop=1;jettySize=auto;html=1;exitX=0.5;exitY=1;exitDx=0;exitDy=0;entryX=0.5;entryY=0;entryDx=0;entryDy=0;sketch=1;curveFitting=1;jiggle=2;" parent="WIyWlLk6GJQsqaUBKTNV-1" source="Q4ZqcIHXgOIeblmxRWBi-33" target="Q4ZqcIHXgOIeblmxRWBi-40" edge="1">
          <mxGeometry relative="1" as="geometry">
            <mxPoint x="1881.636363636363" y="2520" as="targetPoint" />
          </mxGeometry>
        </mxCell>
        <mxCell id="Q4ZqcIHXgOIeblmxRWBi-33" value="&lt;font face=&quot;Comic Sans MS&quot;&gt;&lt;span style=&quot;font-size: 14px;&quot;&gt;判读当前 bean 是否有通知&lt;/span&gt;&lt;/font&gt;" style="rhombus;whiteSpace=wrap;html=1;sketch=1;curveFitting=1;jiggle=2;" parent="WIyWlLk6GJQsqaUBKTNV-1" vertex="1">
          <mxGeometry x="1732" y="2360" width="300" height="110" as="geometry" />
        </mxCell>
        <mxCell id="Q4ZqcIHXgOIeblmxRWBi-41" style="edgeStyle=orthogonalEdgeStyle;rounded=0;orthogonalLoop=1;jettySize=auto;html=1;exitX=0.5;exitY=1;exitDx=0;exitDy=0;sketch=1;curveFitting=1;jiggle=2;entryX=0.5;entryY=0;entryDx=0;entryDy=0;" parent="WIyWlLk6GJQsqaUBKTNV-1" source="Q4ZqcIHXgOIeblmxRWBi-40" target="Q4ZqcIHXgOIeblmxRWBi-42" edge="1">
          <mxGeometry relative="1" as="geometry">
            <mxPoint x="1881.636363636363" y="2620" as="targetPoint" />
          </mxGeometry>
        </mxCell>
        <mxCell id="Q4ZqcIHXgOIeblmxRWBi-40" value="&lt;font style=&quot;font-size: 14px;&quot;&gt;创建代理对象&lt;/font&gt;" style="rounded=0;whiteSpace=wrap;html=1;sketch=1;curveFitting=1;jiggle=2;" parent="WIyWlLk6GJQsqaUBKTNV-1" vertex="1">
          <mxGeometry x="1822" y="2530" width="120" height="40" as="geometry" />
        </mxCell>
        <mxCell id="Q4ZqcIHXgOIeblmxRWBi-43" style="edgeStyle=orthogonalEdgeStyle;rounded=0;orthogonalLoop=1;jettySize=auto;html=1;exitX=0;exitY=0.5;exitDx=0;exitDy=0;entryX=0;entryY=0.5;entryDx=0;entryDy=0;sketch=1;curveFitting=1;jiggle=2;" parent="WIyWlLk6GJQsqaUBKTNV-1" source="Q4ZqcIHXgOIeblmxRWBi-42" target="Q4ZqcIHXgOIeblmxRWBi-11" edge="1">
          <mxGeometry relative="1" as="geometry">
            <Array as="points">
              <mxPoint x="1612" y="2640" />
              <mxPoint x="1612" y="1964" />
            </Array>
          </mxGeometry>
        </mxCell>
        <mxCell id="Q4ZqcIHXgOIeblmxRWBi-44" value="代理对象" style="edgeLabel;html=1;align=center;verticalAlign=middle;resizable=0;points=[];" parent="Q4ZqcIHXgOIeblmxRWBi-43" vertex="1" connectable="0">
          <mxGeometry x="-0.8055" y="1" relative="1" as="geometry">
            <mxPoint as="offset" />
          </mxGeometry>
        </mxCell>
        <mxCell id="Q4ZqcIHXgOIeblmxRWBi-42" value="&lt;font face=&quot;Comic Sans MS&quot; style=&quot;font-size: 14px;&quot;&gt;将当前 bean 设置为增强 bean&lt;/font&gt;" style="rounded=0;whiteSpace=wrap;html=1;sketch=1;curveFitting=1;jiggle=2;" parent="WIyWlLk6GJQsqaUBKTNV-1" vertex="1">
          <mxGeometry x="1777" y="2610" width="210" height="60" as="geometry" />
        </mxCell>
        <mxCell id="Q4ZqcIHXgOIeblmxRWBi-50" style="edgeStyle=orthogonalEdgeStyle;rounded=0;orthogonalLoop=1;jettySize=auto;html=1;exitX=0.5;exitY=1;exitDx=0;exitDy=0;entryX=0.5;entryY=0;entryDx=0;entryDy=0;sketch=1;curveFitting=1;jiggle=2;" parent="WIyWlLk6GJQsqaUBKTNV-1" source="Q4ZqcIHXgOIeblmxRWBi-46" target="Q4ZqcIHXgOIeblmxRWBi-49" edge="1">
          <mxGeometry relative="1" as="geometry" />
        </mxCell>
        <mxCell id="Q4ZqcIHXgOIeblmxRWBi-46" value="&lt;font face=&quot;Comic Sans MS&quot; style=&quot;font-size: 14px;&quot;&gt;解析 bean 的 class&amp;nbsp;&lt;/font&gt;" style="rounded=0;whiteSpace=wrap;html=1;sketch=1;curveFitting=1;jiggle=2;" parent="WIyWlLk6GJQsqaUBKTNV-1" vertex="1">
          <mxGeometry x="2364.5" y="190" width="160" height="50" as="geometry" />
        </mxCell>
        <mxCell id="Q4ZqcIHXgOIeblmxRWBi-52" style="edgeStyle=orthogonalEdgeStyle;rounded=0;orthogonalLoop=1;jettySize=auto;html=1;exitX=0.5;exitY=1;exitDx=0;exitDy=0;sketch=1;curveFitting=1;jiggle=2;" parent="WIyWlLk6GJQsqaUBKTNV-1" source="Q4ZqcIHXgOIeblmxRWBi-49" target="Q4ZqcIHXgOIeblmxRWBi-51" edge="1">
          <mxGeometry relative="1" as="geometry" />
        </mxCell>
        <mxCell id="Q4ZqcIHXgOIeblmxRWBi-49" value="&lt;font face=&quot;Comic Sans MS&quot; style=&quot;font-size: 14px;&quot;&gt;处理方法重写&lt;/font&gt;" style="rounded=0;whiteSpace=wrap;html=1;sketch=1;curveFitting=1;jiggle=2;" parent="WIyWlLk6GJQsqaUBKTNV-1" vertex="1">
          <mxGeometry x="2362" y="270" width="160" height="50" as="geometry" />
        </mxCell>
        <mxCell id="Q4ZqcIHXgOIeblmxRWBi-64" style="edgeStyle=orthogonalEdgeStyle;rounded=0;orthogonalLoop=1;jettySize=auto;html=1;exitX=0.5;exitY=1;exitDx=0;exitDy=0;sketch=1;curveFitting=1;jiggle=2;entryX=0.5;entryY=0;entryDx=0;entryDy=0;" parent="WIyWlLk6GJQsqaUBKTNV-1" source="Q4ZqcIHXgOIeblmxRWBi-51" target="Q4ZqcIHXgOIeblmxRWBi-65" edge="1">
          <mxGeometry relative="1" as="geometry">
            <mxPoint x="2442.4" y="470" as="targetPoint" />
          </mxGeometry>
        </mxCell>
        <mxCell id="Q4ZqcIHXgOIeblmxRWBi-81" style="edgeStyle=orthogonalEdgeStyle;rounded=0;orthogonalLoop=1;jettySize=auto;html=1;exitX=0;exitY=0.5;exitDx=0;exitDy=0;sketch=1;curveFitting=1;jiggle=2;" parent="WIyWlLk6GJQsqaUBKTNV-1" source="Q4ZqcIHXgOIeblmxRWBi-51" target="Q4ZqcIHXgOIeblmxRWBi-53" edge="1">
          <mxGeometry relative="1" as="geometry" />
        </mxCell>
        <mxCell id="Q4ZqcIHXgOIeblmxRWBi-51" value="&lt;font style=&quot;font-size: 14px;&quot;&gt;调用实例化之前钩子方法&lt;/font&gt;" style="shape=process;whiteSpace=wrap;html=1;backgroundOutline=1;sketch=1;curveFitting=1;jiggle=2;" parent="WIyWlLk6GJQsqaUBKTNV-1" vertex="1">
          <mxGeometry x="2327" y="360" width="230" height="60" as="geometry" />
        </mxCell>
        <mxCell id="Q4ZqcIHXgOIeblmxRWBi-56" style="edgeStyle=orthogonalEdgeStyle;rounded=0;orthogonalLoop=1;jettySize=auto;html=1;exitX=0.5;exitY=1;exitDx=0;exitDy=0;sketch=1;curveFitting=1;jiggle=2;" parent="WIyWlLk6GJQsqaUBKTNV-1" source="Q4ZqcIHXgOIeblmxRWBi-53" target="Q4ZqcIHXgOIeblmxRWBi-55" edge="1">
          <mxGeometry relative="1" as="geometry" />
        </mxCell>
        <mxCell id="Q4ZqcIHXgOIeblmxRWBi-53" value="&lt;font face=&quot;Comic Sans MS&quot; style=&quot;font-size: 14px;&quot;&gt;resolveBeforeInstantiation&lt;/font&gt;&lt;font face=&quot;Comic Sans MS&quot; style=&quot;font-size: 11px;&quot;&gt;(String beanName, RootBeanDefinition mbd)&amp;nbsp;&lt;/font&gt;" style="rounded=1;whiteSpace=wrap;html=1;fillColor=#f8cecc;strokeColor=#b85450;sketch=1;curveFitting=1;jiggle=2;" parent="WIyWlLk6GJQsqaUBKTNV-1" vertex="1">
          <mxGeometry x="1690" y="360" width="460" height="60" as="geometry" />
        </mxCell>
        <mxCell id="Q4ZqcIHXgOIeblmxRWBi-57" style="edgeStyle=orthogonalEdgeStyle;rounded=0;orthogonalLoop=1;jettySize=auto;html=1;exitX=0.5;exitY=1;exitDx=0;exitDy=0;sketch=1;curveFitting=1;jiggle=2;" parent="WIyWlLk6GJQsqaUBKTNV-1" source="Q4ZqcIHXgOIeblmxRWBi-55" target="Q4ZqcIHXgOIeblmxRWBi-58" edge="1">
          <mxGeometry relative="1" as="geometry">
            <mxPoint x="1920" y="560" as="targetPoint" />
          </mxGeometry>
        </mxCell>
        <mxCell id="Q4ZqcIHXgOIeblmxRWBi-55" value="&lt;font face=&quot;Comic Sans MS&quot; style=&quot;&quot;&gt;InstantiationAwareBeanPostProcessor 接口 postProcessBeforeInstantiation 回调&lt;br&gt;&lt;/font&gt;" style="shape=process;whiteSpace=wrap;html=1;backgroundOutline=1;sketch=1;curveFitting=1;jiggle=2;fillColor=#e1d5e7;strokeColor=#9673a6;" parent="WIyWlLk6GJQsqaUBKTNV-1" vertex="1">
          <mxGeometry x="1750" y="459" width="340" height="60" as="geometry" />
        </mxCell>
        <mxCell id="Q4ZqcIHXgOIeblmxRWBi-62" style="edgeStyle=orthogonalEdgeStyle;rounded=0;orthogonalLoop=1;jettySize=auto;html=1;exitX=0.5;exitY=1;exitDx=0;exitDy=0;" parent="WIyWlLk6GJQsqaUBKTNV-1" source="Q4ZqcIHXgOIeblmxRWBi-58" target="Q4ZqcIHXgOIeblmxRWBi-61" edge="1">
          <mxGeometry relative="1" as="geometry" />
        </mxCell>
        <mxCell id="Q4ZqcIHXgOIeblmxRWBi-63" value="&lt;font face=&quot;Comic Sans MS&quot;&gt;Yes&lt;/font&gt;" style="edgeLabel;html=1;align=center;verticalAlign=middle;resizable=0;points=[];" parent="Q4ZqcIHXgOIeblmxRWBi-62" vertex="1" connectable="0">
          <mxGeometry x="-0.2857" relative="1" as="geometry">
            <mxPoint as="offset" />
          </mxGeometry>
        </mxCell>
        <mxCell id="Q4ZqcIHXgOIeblmxRWBi-58" value="是否存在 bean 实例产生" style="rhombus;whiteSpace=wrap;html=1;sketch=1;curveFitting=1;jiggle=2;" parent="WIyWlLk6GJQsqaUBKTNV-1" vertex="1">
          <mxGeometry x="1837" y="559" width="166" height="71" as="geometry" />
        </mxCell>
        <mxCell id="Q4ZqcIHXgOIeblmxRWBi-61" value="&lt;font face=&quot;Comic Sans MS&quot; style=&quot;font-size: 14px;&quot;&gt;BeanPostProcessor 接口&amp;nbsp;postProcessAfterInitialization 回调&lt;/font&gt;" style="shape=process;whiteSpace=wrap;html=1;backgroundOutline=1;rounded=1;sketch=1;curveFitting=1;jiggle=2;fillColor=#e1d5e7;strokeColor=#9673a6;" parent="WIyWlLk6GJQsqaUBKTNV-1" vertex="1">
          <mxGeometry x="1755" y="700" width="330" height="40" as="geometry" />
        </mxCell>
        <mxCell id="Q4ZqcIHXgOIeblmxRWBi-66" style="edgeStyle=orthogonalEdgeStyle;rounded=0;orthogonalLoop=1;jettySize=auto;html=1;exitX=1;exitY=0.5;exitDx=0;exitDy=0;entryX=1;entryY=0.5;entryDx=0;entryDy=0;jumpStyle=arc;jumpSize=13;sketch=1;curveFitting=1;jiggle=2;" parent="WIyWlLk6GJQsqaUBKTNV-1" source="Q4ZqcIHXgOIeblmxRWBi-65" target="NqXv0ei1hqFi60krSDiM-106" edge="1">
          <mxGeometry relative="1" as="geometry">
            <mxPoint x="2615" y="525.4000000000001" as="targetPoint" />
            <Array as="points">
              <mxPoint x="2600" y="525" />
              <mxPoint x="2600" y="130" />
            </Array>
          </mxGeometry>
        </mxCell>
        <mxCell id="Q4ZqcIHXgOIeblmxRWBi-69" value="&lt;font face=&quot;Comic Sans MS&quot;&gt;Yes&lt;/font&gt;" style="edgeLabel;html=1;align=center;verticalAlign=middle;resizable=0;points=[];" parent="Q4ZqcIHXgOIeblmxRWBi-66" vertex="1" connectable="0">
          <mxGeometry x="-0.9028" y="1" relative="1" as="geometry">
            <mxPoint as="offset" />
          </mxGeometry>
        </mxCell>
        <mxCell id="Q4ZqcIHXgOIeblmxRWBi-76" value="&lt;font face=&quot;Comic Sans MS&quot;&gt;No&lt;/font&gt;" style="edgeStyle=orthogonalEdgeStyle;rounded=0;orthogonalLoop=1;jettySize=auto;html=1;exitX=0.5;exitY=1;exitDx=0;exitDy=0;entryX=0.5;entryY=0;entryDx=0;entryDy=0;sketch=1;curveFitting=1;jiggle=2;" parent="WIyWlLk6GJQsqaUBKTNV-1" source="Q4ZqcIHXgOIeblmxRWBi-65" target="Q4ZqcIHXgOIeblmxRWBi-75" edge="1">
          <mxGeometry relative="1" as="geometry" />
        </mxCell>
        <mxCell id="Q4ZqcIHXgOIeblmxRWBi-65" value="&lt;font face=&quot;Comic Sans MS&quot; style=&quot;font-size: 15px;&quot;&gt;回调是否产生 bean 实例&lt;/font&gt;" style="rhombus;whiteSpace=wrap;html=1;sketch=1;curveFitting=1;jiggle=2;" parent="WIyWlLk6GJQsqaUBKTNV-1" vertex="1">
          <mxGeometry x="2342" y="480" width="200" height="90" as="geometry" />
        </mxCell>
        <mxCell id="Q4ZqcIHXgOIeblmxRWBi-71" value="方法实现" style="text;html=1;strokeColor=none;fillColor=none;align=center;verticalAlign=middle;whiteSpace=wrap;rounded=0;" parent="WIyWlLk6GJQsqaUBKTNV-1" vertex="1">
          <mxGeometry x="-1100" width="60" height="30" as="geometry" />
        </mxCell>
        <mxCell id="Q4ZqcIHXgOIeblmxRWBi-72" value="钩子回调" style="text;html=1;strokeColor=none;fillColor=none;align=center;verticalAlign=middle;whiteSpace=wrap;rounded=0;" parent="WIyWlLk6GJQsqaUBKTNV-1" vertex="1">
          <mxGeometry x="-1100" y="40" width="60" height="30" as="geometry" />
        </mxCell>
        <mxCell id="Q4ZqcIHXgOIeblmxRWBi-73" value="" style="rounded=0;whiteSpace=wrap;html=1;sketch=1;curveFitting=1;jiggle=2;fillColor=#f8cecc;strokeColor=#b85450;" parent="WIyWlLk6GJQsqaUBKTNV-1" vertex="1">
          <mxGeometry x="-1040" y="10" width="50" height="15" as="geometry" />
        </mxCell>
        <mxCell id="Q4ZqcIHXgOIeblmxRWBi-74" value="" style="rounded=0;whiteSpace=wrap;html=1;sketch=1;curveFitting=1;jiggle=2;fillColor=#e1d5e7;strokeColor=#9673a6;" parent="WIyWlLk6GJQsqaUBKTNV-1" vertex="1">
          <mxGeometry x="-1040" y="47.5" width="50" height="15" as="geometry" />
        </mxCell>
        <mxCell id="Q4ZqcIHXgOIeblmxRWBi-82" style="edgeStyle=orthogonalEdgeStyle;rounded=0;orthogonalLoop=1;jettySize=auto;html=1;exitX=0.5;exitY=1;exitDx=0;exitDy=0;entryX=0.003;entryY=0.814;entryDx=0;entryDy=0;sketch=1;curveFitting=1;jiggle=2;jumpStyle=arc;jumpSize=13;entryPerimeter=0;" parent="WIyWlLk6GJQsqaUBKTNV-1" source="Q4ZqcIHXgOIeblmxRWBi-75" target="NqXv0ei1hqFi60krSDiM-106" edge="1">
          <mxGeometry relative="1" as="geometry">
            <mxPoint x="2250" y="240" as="targetPoint" />
            <Array as="points">
              <mxPoint x="2442" y="739" />
              <mxPoint x="2210" y="739" />
              <mxPoint x="2210" y="139" />
            </Array>
          </mxGeometry>
        </mxCell>
        <mxCell id="Q4ZqcIHXgOIeblmxRWBi-84" style="edgeStyle=orthogonalEdgeStyle;rounded=0;orthogonalLoop=1;jettySize=auto;html=1;exitX=1;exitY=0.5;exitDx=0;exitDy=0;entryX=0;entryY=0.5;entryDx=0;entryDy=0;sketch=1;curveFitting=1;jiggle=2;" parent="WIyWlLk6GJQsqaUBKTNV-1" source="Q4ZqcIHXgOIeblmxRWBi-75" target="Q4ZqcIHXgOIeblmxRWBi-83" edge="1">
          <mxGeometry relative="1" as="geometry" />
        </mxCell>
        <mxCell id="Q4ZqcIHXgOIeblmxRWBi-75" value="&lt;font face=&quot;Comic Sans MS&quot; style=&quot;font-size: 14px;&quot;&gt;doCreatBean&lt;/font&gt;" style="shape=process;whiteSpace=wrap;html=1;backgroundOutline=1;sketch=1;curveFitting=1;jiggle=2;" parent="WIyWlLk6GJQsqaUBKTNV-1" vertex="1">
          <mxGeometry x="2327" y="659" width="230" height="60" as="geometry" />
        </mxCell>
        <mxCell id="Q4ZqcIHXgOIeblmxRWBi-77" value="" style="shape=umlActor;verticalLabelPosition=bottom;verticalAlign=top;html=1;outlineConnect=0;sketch=1;curveFitting=1;jiggle=2;" parent="WIyWlLk6GJQsqaUBKTNV-1" vertex="1">
          <mxGeometry x="460" y="75" width="30" height="50" as="geometry" />
        </mxCell>
        <mxCell id="Q4ZqcIHXgOIeblmxRWBi-88" style="edgeStyle=orthogonalEdgeStyle;rounded=0;orthogonalLoop=1;jettySize=auto;html=1;exitX=0.5;exitY=1;exitDx=0;exitDy=0;entryX=0.5;entryY=0;entryDx=0;entryDy=0;shadow=0;sketch=1;curveFitting=1;jiggle=2;" parent="WIyWlLk6GJQsqaUBKTNV-1" source="Q4ZqcIHXgOIeblmxRWBi-83" target="Q4ZqcIHXgOIeblmxRWBi-86" edge="1">
          <mxGeometry relative="1" as="geometry" />
        </mxCell>
        <mxCell id="Q4ZqcIHXgOIeblmxRWBi-83" value="&lt;font face=&quot;Comic Sans MS&quot; style=&quot;&quot;&gt;&lt;font style=&quot;font-size: 14px;&quot;&gt;doCreateBean&lt;/font&gt;&lt;font style=&quot;font-size: 11px;&quot;&gt;(String beanName, RootBeanDefinition mbd, @Nullable Object[] args)&lt;/font&gt;&lt;br&gt;&lt;br&gt;&lt;/font&gt;" style="rounded=1;whiteSpace=wrap;html=1;sketch=1;curveFitting=1;jiggle=2;fillColor=#f8cecc;strokeColor=#b85450;" parent="WIyWlLk6GJQsqaUBKTNV-1" vertex="1">
          <mxGeometry x="2818" y="90" width="490" height="60" as="geometry" />
        </mxCell>
        <mxCell id="Q4ZqcIHXgOIeblmxRWBi-90" style="edgeStyle=orthogonalEdgeStyle;rounded=0;orthogonalLoop=1;jettySize=auto;html=1;exitX=1;exitY=0.5;exitDx=0;exitDy=0;sketch=1;curveFitting=1;jiggle=2;entryX=0;entryY=0.5;entryDx=0;entryDy=0;" parent="WIyWlLk6GJQsqaUBKTNV-1" source="Q4ZqcIHXgOIeblmxRWBi-86" target="Q4ZqcIHXgOIeblmxRWBi-93" edge="1">
          <mxGeometry relative="1" as="geometry">
            <mxPoint x="3300" y="250.33333333333326" as="targetPoint" />
          </mxGeometry>
        </mxCell>
        <mxCell id="Q4ZqcIHXgOIeblmxRWBi-91" value="&lt;font face=&quot;Comic Sans MS&quot;&gt;Yes&lt;/font&gt;" style="edgeLabel;html=1;align=center;verticalAlign=middle;resizable=0;points=[];" parent="Q4ZqcIHXgOIeblmxRWBi-90" vertex="1" connectable="0">
          <mxGeometry x="-0.2281" y="-3" relative="1" as="geometry">
            <mxPoint x="1" as="offset" />
          </mxGeometry>
        </mxCell>
        <mxCell id="Q4ZqcIHXgOIeblmxRWBi-94" style="edgeStyle=orthogonalEdgeStyle;rounded=0;orthogonalLoop=1;jettySize=auto;html=1;exitX=0.5;exitY=1;exitDx=0;exitDy=0;sketch=1;curveFitting=1;jiggle=2;entryX=0.5;entryY=0;entryDx=0;entryDy=0;" parent="WIyWlLk6GJQsqaUBKTNV-1" source="Q4ZqcIHXgOIeblmxRWBi-86" target="Q4ZqcIHXgOIeblmxRWBi-96" edge="1">
          <mxGeometry relative="1" as="geometry">
            <mxPoint x="3063" y="380" as="targetPoint" />
          </mxGeometry>
        </mxCell>
        <mxCell id="Q4ZqcIHXgOIeblmxRWBi-95" value="&lt;font face=&quot;Comic Sans MS&quot;&gt;No&lt;/font&gt;" style="edgeLabel;html=1;align=center;verticalAlign=middle;resizable=0;points=[];" parent="Q4ZqcIHXgOIeblmxRWBi-94" vertex="1" connectable="0">
          <mxGeometry x="-0.146" y="-1" relative="1" as="geometry">
            <mxPoint as="offset" />
          </mxGeometry>
        </mxCell>
        <mxCell id="Q4ZqcIHXgOIeblmxRWBi-86" value="&lt;font face=&quot;Comic Sans MS&quot;&gt;&lt;span style=&quot;font-size: 15px;&quot;&gt;是否是单例 bean&lt;/span&gt;&lt;/font&gt;" style="rhombus;whiteSpace=wrap;html=1;sketch=1;curveFitting=1;jiggle=2;" parent="WIyWlLk6GJQsqaUBKTNV-1" vertex="1">
          <mxGeometry x="2940.5" y="195" width="245" height="110" as="geometry" />
        </mxCell>
        <mxCell id="Q4ZqcIHXgOIeblmxRWBi-97" style="edgeStyle=orthogonalEdgeStyle;rounded=0;orthogonalLoop=1;jettySize=auto;html=1;exitX=0.5;exitY=1;exitDx=0;exitDy=0;sketch=1;curveFitting=1;jiggle=2;" parent="WIyWlLk6GJQsqaUBKTNV-1" source="Q4ZqcIHXgOIeblmxRWBi-93" edge="1">
          <mxGeometry relative="1" as="geometry">
            <mxPoint x="3063" y="360" as="targetPoint" />
            <Array as="points">
              <mxPoint x="3445" y="360" />
            </Array>
          </mxGeometry>
        </mxCell>
        <mxCell id="Q4ZqcIHXgOIeblmxRWBi-98" value="&lt;font face=&quot;Comic Sans MS&quot;&gt;返回被删除的 bean 实例&lt;/font&gt;" style="edgeLabel;html=1;align=center;verticalAlign=middle;resizable=0;points=[];" parent="Q4ZqcIHXgOIeblmxRWBi-97" vertex="1" connectable="0">
          <mxGeometry x="0.4053" relative="1" as="geometry">
            <mxPoint as="offset" />
          </mxGeometry>
        </mxCell>
        <mxCell id="Q4ZqcIHXgOIeblmxRWBi-93" value="&lt;font face=&quot;Comic Sans MS&quot; style=&quot;font-size: 14px;&quot;&gt;从 bean factory 移除当前 bean&lt;/font&gt;" style="rounded=0;whiteSpace=wrap;html=1;sketch=1;curveFitting=1;jiggle=2;" parent="WIyWlLk6GJQsqaUBKTNV-1" vertex="1">
          <mxGeometry x="3320" y="220" width="250" height="60" as="geometry" />
        </mxCell>
        <mxCell id="Q4ZqcIHXgOIeblmxRWBi-100" style="edgeStyle=orthogonalEdgeStyle;rounded=0;orthogonalLoop=1;jettySize=auto;html=1;exitX=1;exitY=0.5;exitDx=0;exitDy=0;entryX=0;entryY=0.5;entryDx=0;entryDy=0;sketch=1;curveFitting=1;jiggle=2;" parent="WIyWlLk6GJQsqaUBKTNV-1" source="Q4ZqcIHXgOIeblmxRWBi-96" target="Q4ZqcIHXgOIeblmxRWBi-102" edge="1">
          <mxGeometry relative="1" as="geometry">
            <mxPoint x="3330" y="419.4" as="targetPoint" />
          </mxGeometry>
        </mxCell>
        <mxCell id="Q4ZqcIHXgOIeblmxRWBi-103" value="&lt;font face=&quot;Comic Sans MS&quot;&gt;Yes&lt;/font&gt;" style="edgeLabel;html=1;align=center;verticalAlign=middle;resizable=0;points=[];" parent="Q4ZqcIHXgOIeblmxRWBi-100" vertex="1" connectable="0">
          <mxGeometry x="-0.3763" y="4" relative="1" as="geometry">
            <mxPoint as="offset" />
          </mxGeometry>
        </mxCell>
        <mxCell id="fBpSx0FqBBJXa8zHEMi_-0" value="&lt;font face=&quot;Comic Sans MS&quot;&gt;No&lt;/font&gt;" style="edgeStyle=orthogonalEdgeStyle;rounded=0;orthogonalLoop=1;jettySize=auto;html=1;exitX=0.5;exitY=1;exitDx=0;exitDy=0;shadow=0;sketch=1;curveFitting=1;jiggle=2;" parent="WIyWlLk6GJQsqaUBKTNV-1" source="Q4ZqcIHXgOIeblmxRWBi-96" target="Q4ZqcIHXgOIeblmxRWBi-106" edge="1">
          <mxGeometry relative="1" as="geometry" />
        </mxCell>
        <mxCell id="Q4ZqcIHXgOIeblmxRWBi-96" value="&lt;font face=&quot;Comic Sans MS&quot;&gt;&lt;span style=&quot;font-size: 15px;&quot;&gt;bean 实例是否为 null&lt;/span&gt;&lt;/font&gt;" style="rhombus;whiteSpace=wrap;html=1;sketch=1;curveFitting=1;jiggle=2;" parent="WIyWlLk6GJQsqaUBKTNV-1" vertex="1">
          <mxGeometry x="2940.5" y="364" width="245" height="110" as="geometry" />
        </mxCell>
        <mxCell id="Q4ZqcIHXgOIeblmxRWBi-102" value="&lt;font face=&quot;Comic Sans MS&quot; style=&quot;font-size: 14px;&quot;&gt;createBeanInstance&lt;br&gt;通过反射或者 CGLib 创建实例&lt;br&gt;&lt;/font&gt;" style="shape=process;whiteSpace=wrap;html=1;backgroundOutline=1;sketch=1;curveFitting=1;jiggle=2;fillColor=#dae8fc;strokeColor=#6c8ebf;" parent="WIyWlLk6GJQsqaUBKTNV-1" vertex="1">
          <mxGeometry x="3350" y="389" width="280" height="60" as="geometry" />
        </mxCell>
        <mxCell id="Q4ZqcIHXgOIeblmxRWBi-104" value="重要标记" style="text;html=1;strokeColor=none;fillColor=none;align=center;verticalAlign=middle;whiteSpace=wrap;rounded=0;" parent="WIyWlLk6GJQsqaUBKTNV-1" vertex="1">
          <mxGeometry x="-1100" y="80" width="60" height="30" as="geometry" />
        </mxCell>
        <mxCell id="Q4ZqcIHXgOIeblmxRWBi-105" value="" style="rounded=0;whiteSpace=wrap;html=1;sketch=1;curveFitting=1;jiggle=2;fillColor=#dae8fc;strokeColor=#6c8ebf;" parent="WIyWlLk6GJQsqaUBKTNV-1" vertex="1">
          <mxGeometry x="-1040" y="87.5" width="50" height="15" as="geometry" />
        </mxCell>
        <mxCell id="fBpSx0FqBBJXa8zHEMi_-1" style="edgeStyle=orthogonalEdgeStyle;rounded=0;orthogonalLoop=1;jettySize=auto;html=1;exitX=1;exitY=0.5;exitDx=0;exitDy=0;sketch=1;curveFitting=1;jiggle=2;" parent="WIyWlLk6GJQsqaUBKTNV-1" source="Q4ZqcIHXgOIeblmxRWBi-106" target="fBpSx0FqBBJXa8zHEMi_-2" edge="1">
          <mxGeometry relative="1" as="geometry">
            <mxPoint x="3400" y="570" as="targetPoint" />
          </mxGeometry>
        </mxCell>
        <mxCell id="fBpSx0FqBBJXa8zHEMi_-3" style="edgeStyle=orthogonalEdgeStyle;rounded=0;orthogonalLoop=1;jettySize=auto;html=1;exitX=0.5;exitY=1;exitDx=0;exitDy=0;sketch=1;curveFitting=1;jiggle=2;entryX=0.5;entryY=0;entryDx=0;entryDy=0;" parent="WIyWlLk6GJQsqaUBKTNV-1" source="Q4ZqcIHXgOIeblmxRWBi-106" target="fBpSx0FqBBJXa8zHEMi_-4" edge="1">
          <mxGeometry relative="1" as="geometry">
            <mxPoint x="3063" y="700" as="targetPoint" />
          </mxGeometry>
        </mxCell>
        <mxCell id="Q4ZqcIHXgOIeblmxRWBi-106" value="&lt;font face=&quot;Comic Sans MS&quot; style=&quot;font-size: 14px;&quot;&gt;applyMergedBeanDefinitionPostProcessors&lt;br&gt;回调&lt;br&gt;&lt;/font&gt;" style="shape=process;whiteSpace=wrap;html=1;backgroundOutline=1;sketch=1;curveFitting=1;jiggle=2;" parent="WIyWlLk6GJQsqaUBKTNV-1" vertex="1">
          <mxGeometry x="2879.5" y="570" width="367" height="60" as="geometry" />
        </mxCell>
        <mxCell id="fBpSx0FqBBJXa8zHEMi_-2" value="&lt;font face=&quot;Comic Sans MS&quot; style=&quot;font-size: 14px;&quot;&gt;MergedBeanDefinitionPostProcessor 接口的&amp;nbsp;postProcessMergedBeanDefinition 方法&lt;/font&gt;" style="rounded=1;whiteSpace=wrap;html=1;fillColor=#e1d5e7;strokeColor=#9673a6;sketch=1;curveFitting=1;jiggle=2;" parent="WIyWlLk6GJQsqaUBKTNV-1" vertex="1">
          <mxGeometry x="3340" y="570" width="390" height="60" as="geometry" />
        </mxCell>
        <mxCell id="fBpSx0FqBBJXa8zHEMi_-20" style="edgeStyle=orthogonalEdgeStyle;rounded=0;orthogonalLoop=1;jettySize=auto;html=1;exitX=0;exitY=0.5;exitDx=0;exitDy=0;entryX=1;entryY=0.5;entryDx=0;entryDy=0;sketch=1;curveFitting=1;jiggle=2;" parent="WIyWlLk6GJQsqaUBKTNV-1" source="fBpSx0FqBBJXa8zHEMi_-4" target="fBpSx0FqBBJXa8zHEMi_-6" edge="1">
          <mxGeometry relative="1" as="geometry">
            <Array as="points">
              <mxPoint x="1800" y="816" />
              <mxPoint x="1800" y="1250" />
              <mxPoint x="340" y="1250" />
              <mxPoint x="340" y="1770" />
            </Array>
          </mxGeometry>
        </mxCell>
        <mxCell id="fBpSx0FqBBJXa8zHEMi_-22" value="&lt;font face=&quot;Comic Sans MS&quot;&gt;Yes&lt;/font&gt;" style="edgeLabel;html=1;align=center;verticalAlign=middle;resizable=0;points=[];" parent="fBpSx0FqBBJXa8zHEMi_-20" vertex="1" connectable="0">
          <mxGeometry x="-0.9349" y="4" relative="1" as="geometry">
            <mxPoint x="-1" as="offset" />
          </mxGeometry>
        </mxCell>
        <mxCell id="fBpSx0FqBBJXa8zHEMi_-23" style="edgeStyle=orthogonalEdgeStyle;rounded=0;orthogonalLoop=1;jettySize=auto;html=1;exitX=0.5;exitY=1;exitDx=0;exitDy=0;entryX=0.5;entryY=0;entryDx=0;entryDy=0;sketch=1;curveFitting=1;jiggle=2;" parent="WIyWlLk6GJQsqaUBKTNV-1" source="fBpSx0FqBBJXa8zHEMi_-4" target="fBpSx0FqBBJXa8zHEMi_-24" edge="1">
          <mxGeometry relative="1" as="geometry">
            <mxPoint x="3063" y="1010" as="targetPoint" />
          </mxGeometry>
        </mxCell>
        <mxCell id="fBpSx0FqBBJXa8zHEMi_-26" value="&lt;font face=&quot;Comic Sans MS&quot;&gt;No&lt;/font&gt;" style="edgeLabel;html=1;align=center;verticalAlign=middle;resizable=0;points=[];" parent="fBpSx0FqBBJXa8zHEMi_-23" vertex="1" connectable="0">
          <mxGeometry x="-0.2557" y="-1" relative="1" as="geometry">
            <mxPoint as="offset" />
          </mxGeometry>
        </mxCell>
        <mxCell id="fBpSx0FqBBJXa8zHEMi_-27" style="edgeStyle=orthogonalEdgeStyle;rounded=0;orthogonalLoop=1;jettySize=auto;html=1;exitX=0;exitY=0.5;exitDx=0;exitDy=0;entryX=0;entryY=0.5;entryDx=0;entryDy=0;sketch=1;curveFitting=1;jiggle=2;" parent="WIyWlLk6GJQsqaUBKTNV-1" source="fBpSx0FqBBJXa8zHEMi_-4" target="fBpSx0FqBBJXa8zHEMi_-24" edge="1">
          <mxGeometry relative="1" as="geometry">
            <Array as="points">
              <mxPoint x="2903" y="1069" />
            </Array>
          </mxGeometry>
        </mxCell>
        <mxCell id="fBpSx0FqBBJXa8zHEMi_-4" value="&lt;font face=&quot;Comic Sans MS&quot;&gt;&lt;span style=&quot;font-size: 15px;&quot;&gt;单例 bean、允许循环引用、处于创建阶段&lt;/span&gt;&lt;/font&gt;" style="rhombus;whiteSpace=wrap;html=1;sketch=1;curveFitting=1;jiggle=2;" parent="WIyWlLk6GJQsqaUBKTNV-1" vertex="1">
          <mxGeometry x="2903" y="750" width="320" height="131" as="geometry" />
        </mxCell>
        <mxCell id="fBpSx0FqBBJXa8zHEMi_-8" style="edgeStyle=orthogonalEdgeStyle;rounded=0;orthogonalLoop=1;jettySize=auto;html=1;exitX=0.5;exitY=1;exitDx=0;exitDy=0;sketch=1;curveFitting=1;jiggle=2;" parent="WIyWlLk6GJQsqaUBKTNV-1" source="fBpSx0FqBBJXa8zHEMi_-6" target="fBpSx0FqBBJXa8zHEMi_-7" edge="1">
          <mxGeometry relative="1" as="geometry" />
        </mxCell>
        <mxCell id="fBpSx0FqBBJXa8zHEMi_-6" value="&lt;font face=&quot;Comic Sans MS&quot; style=&quot;font-size: 14px;&quot;&gt;addSingletonFactory&lt;/font&gt;&lt;font face=&quot;Comic Sans MS&quot; style=&quot;font-size: 11px;&quot;&gt;(String beanName, ObjectFactory&amp;lt;?&amp;gt; singletonFactory)&lt;/font&gt;" style="rounded=1;whiteSpace=wrap;html=1;fillColor=#f8cecc;strokeColor=#b85450;sketch=1;curveFitting=1;jiggle=2;" parent="WIyWlLk6GJQsqaUBKTNV-1" vertex="1">
          <mxGeometry x="-503" y="1740" width="450" height="60" as="geometry" />
        </mxCell>
        <mxCell id="fBpSx0FqBBJXa8zHEMi_-10" style="edgeStyle=orthogonalEdgeStyle;rounded=0;orthogonalLoop=1;jettySize=auto;html=1;exitX=0.5;exitY=1;exitDx=0;exitDy=0;entryX=0.5;entryY=0;entryDx=0;entryDy=0;sketch=1;curveFitting=1;jiggle=2;" parent="WIyWlLk6GJQsqaUBKTNV-1" source="fBpSx0FqBBJXa8zHEMi_-7" target="fBpSx0FqBBJXa8zHEMi_-9" edge="1">
          <mxGeometry relative="1" as="geometry" />
        </mxCell>
        <mxCell id="fBpSx0FqBBJXa8zHEMi_-7" value="&lt;font style=&quot;font-size: 14px;&quot;&gt;锁住一级缓存&lt;/font&gt;" style="rounded=0;whiteSpace=wrap;html=1;sketch=1;curveFitting=1;jiggle=2;" parent="WIyWlLk6GJQsqaUBKTNV-1" vertex="1">
          <mxGeometry x="-361.31" y="1840" width="166.63" height="40" as="geometry" />
        </mxCell>
        <mxCell id="fBpSx0FqBBJXa8zHEMi_-11" style="edgeStyle=orthogonalEdgeStyle;rounded=0;orthogonalLoop=1;jettySize=auto;html=1;exitX=0.5;exitY=1;exitDx=0;exitDy=0;sketch=1;curveFitting=1;jiggle=2;entryX=0.5;entryY=0;entryDx=0;entryDy=0;" parent="WIyWlLk6GJQsqaUBKTNV-1" source="fBpSx0FqBBJXa8zHEMi_-9" target="fBpSx0FqBBJXa8zHEMi_-15" edge="1">
          <mxGeometry relative="1" as="geometry">
            <mxPoint x="-278.1538461538462" y="2050" as="targetPoint" />
          </mxGeometry>
        </mxCell>
        <mxCell id="fBpSx0FqBBJXa8zHEMi_-12" value="&lt;font face=&quot;Comic Sans MS&quot;&gt;No&lt;/font&gt;" style="edgeLabel;html=1;align=center;verticalAlign=middle;resizable=0;points=[];" parent="fBpSx0FqBBJXa8zHEMi_-11" vertex="1" connectable="0">
          <mxGeometry x="0.0329" relative="1" as="geometry">
            <mxPoint as="offset" />
          </mxGeometry>
        </mxCell>
        <mxCell id="fBpSx0FqBBJXa8zHEMi_-9" value="&lt;font face=&quot;Comic Sans MS&quot; style=&quot;font-size: 14px;&quot;&gt;一级缓存是否存在当前 bean&lt;/font&gt;" style="rhombus;whiteSpace=wrap;html=1;sketch=1;curveFitting=1;jiggle=2;" parent="WIyWlLk6GJQsqaUBKTNV-1" vertex="1">
          <mxGeometry x="-375.31" y="1905" width="194.63" height="85" as="geometry" />
        </mxCell>
        <mxCell id="fBpSx0FqBBJXa8zHEMi_-17" style="edgeStyle=orthogonalEdgeStyle;rounded=0;orthogonalLoop=1;jettySize=auto;html=1;exitX=0.5;exitY=1;exitDx=0;exitDy=0;entryX=0.5;entryY=0;entryDx=0;entryDy=0;sketch=1;curveFitting=1;jiggle=2;" parent="WIyWlLk6GJQsqaUBKTNV-1" source="fBpSx0FqBBJXa8zHEMi_-15" target="fBpSx0FqBBJXa8zHEMi_-16" edge="1">
          <mxGeometry relative="1" as="geometry" />
        </mxCell>
        <mxCell id="fBpSx0FqBBJXa8zHEMi_-15" value="&lt;span style=&quot;font-size: 14px;&quot;&gt;存入三级缓存&lt;/span&gt;" style="rounded=0;whiteSpace=wrap;html=1;sketch=1;curveFitting=1;jiggle=2;" parent="WIyWlLk6GJQsqaUBKTNV-1" vertex="1">
          <mxGeometry x="-361.31" y="2040" width="166.63" height="40" as="geometry" />
        </mxCell>
        <mxCell id="fBpSx0FqBBJXa8zHEMi_-18" style="edgeStyle=orthogonalEdgeStyle;rounded=0;orthogonalLoop=1;jettySize=auto;html=1;exitX=0.5;exitY=1;exitDx=0;exitDy=0;sketch=1;curveFitting=1;jiggle=2;entryX=0.5;entryY=0;entryDx=0;entryDy=0;" parent="WIyWlLk6GJQsqaUBKTNV-1" source="fBpSx0FqBBJXa8zHEMi_-16" target="fBpSx0FqBBJXa8zHEMi_-19" edge="1">
          <mxGeometry relative="1" as="geometry">
            <mxPoint x="-278.1538461538462" y="2190" as="targetPoint" />
          </mxGeometry>
        </mxCell>
        <mxCell id="fBpSx0FqBBJXa8zHEMi_-16" value="&lt;span style=&quot;font-size: 14px;&quot;&gt;从二级缓存移除&lt;/span&gt;" style="rounded=0;whiteSpace=wrap;html=1;sketch=1;curveFitting=1;jiggle=2;" parent="WIyWlLk6GJQsqaUBKTNV-1" vertex="1">
          <mxGeometry x="-361.32" y="2110" width="166.63" height="40" as="geometry" />
        </mxCell>
        <mxCell id="fBpSx0FqBBJXa8zHEMi_-19" value="&lt;span style=&quot;font-size: 14px;&quot;&gt;登记已创建&lt;/span&gt;" style="rounded=0;whiteSpace=wrap;html=1;sketch=1;curveFitting=1;jiggle=2;" parent="WIyWlLk6GJQsqaUBKTNV-1" vertex="1">
          <mxGeometry x="-361.32" y="2190" width="166.63" height="40" as="geometry" />
        </mxCell>
        <mxCell id="fBpSx0FqBBJXa8zHEMi_-30" style="edgeStyle=orthogonalEdgeStyle;rounded=0;orthogonalLoop=1;jettySize=auto;html=1;exitX=0.5;exitY=1;exitDx=0;exitDy=0;sketch=1;curveFitting=1;jiggle=2;" parent="WIyWlLk6GJQsqaUBKTNV-1" source="fBpSx0FqBBJXa8zHEMi_-24" target="fBpSx0FqBBJXa8zHEMi_-29" edge="1">
          <mxGeometry relative="1" as="geometry" />
        </mxCell>
        <mxCell id="fBpSx0FqBBJXa8zHEMi_-62" style="edgeStyle=orthogonalEdgeStyle;rounded=0;orthogonalLoop=1;jettySize=auto;html=1;exitX=1;exitY=0.25;exitDx=0;exitDy=0;entryX=0;entryY=0.5;entryDx=0;entryDy=0;sketch=1;curveFitting=1;jiggle=2;" parent="WIyWlLk6GJQsqaUBKTNV-1" source="fBpSx0FqBBJXa8zHEMi_-24" target="fBpSx0FqBBJXa8zHEMi_-61" edge="1">
          <mxGeometry relative="1" as="geometry" />
        </mxCell>
        <mxCell id="fBpSx0FqBBJXa8zHEMi_-24" value="&lt;font face=&quot;Comic Sans MS&quot; style=&quot;font-size: 14px;&quot;&gt;populateBean&lt;br&gt;属性填充&lt;br&gt;&lt;/font&gt;" style="shape=process;whiteSpace=wrap;html=1;backgroundOutline=1;sketch=1;curveFitting=1;jiggle=2;fillColor=#dae8fc;strokeColor=#6c8ebf;" parent="WIyWlLk6GJQsqaUBKTNV-1" vertex="1">
          <mxGeometry x="2947" y="1039" width="232" height="60" as="geometry" />
        </mxCell>
        <mxCell id="fBpSx0FqBBJXa8zHEMi_-31" style="edgeStyle=orthogonalEdgeStyle;rounded=0;orthogonalLoop=1;jettySize=auto;html=1;exitX=0.5;exitY=1;exitDx=0;exitDy=0;entryX=0.5;entryY=0;entryDx=0;entryDy=0;sketch=1;curveFitting=1;jiggle=2;" parent="WIyWlLk6GJQsqaUBKTNV-1" source="fBpSx0FqBBJXa8zHEMi_-29" target="fBpSx0FqBBJXa8zHEMi_-32" edge="1">
          <mxGeometry relative="1" as="geometry">
            <mxPoint x="3063" y="1250" as="targetPoint" />
          </mxGeometry>
        </mxCell>
        <mxCell id="6YjcLc2RfiKxpKUbYCRJ-18" style="edgeStyle=orthogonalEdgeStyle;rounded=0;orthogonalLoop=1;jettySize=auto;html=1;exitX=1;exitY=0.5;exitDx=0;exitDy=0;entryX=0.5;entryY=0;entryDx=0;entryDy=0;sketch=1;curveFitting=1;jiggle=2;" edge="1" parent="WIyWlLk6GJQsqaUBKTNV-1" source="fBpSx0FqBBJXa8zHEMi_-29" target="6YjcLc2RfiKxpKUbYCRJ-19">
          <mxGeometry relative="1" as="geometry">
            <mxPoint x="3300" y="1170.3333333333335" as="targetPoint" />
          </mxGeometry>
        </mxCell>
        <mxCell id="fBpSx0FqBBJXa8zHEMi_-29" value="&lt;font face=&quot;Comic Sans MS&quot; style=&quot;&quot;&gt;&lt;font style=&quot;font-size: 14px;&quot;&gt;initializeBean&lt;br&gt;&lt;/font&gt;初始化&lt;br&gt;&lt;/font&gt;" style="shape=process;whiteSpace=wrap;html=1;backgroundOutline=1;sketch=1;curveFitting=1;jiggle=2;fillColor=#dae8fc;strokeColor=#6c8ebf;" parent="WIyWlLk6GJQsqaUBKTNV-1" vertex="1">
          <mxGeometry x="2947" y="1140" width="232" height="60" as="geometry" />
        </mxCell>
        <mxCell id="fBpSx0FqBBJXa8zHEMi_-33" style="edgeStyle=orthogonalEdgeStyle;rounded=0;orthogonalLoop=1;jettySize=auto;html=1;exitX=0;exitY=0.5;exitDx=0;exitDy=0;entryX=0.25;entryY=0;entryDx=0;entryDy=0;sketch=1;curveFitting=1;jiggle=2;jumpStyle=arc;jumpSize=13;" parent="WIyWlLk6GJQsqaUBKTNV-1" source="fBpSx0FqBBJXa8zHEMi_-38" target="NqXv0ei1hqFi60krSDiM-9" edge="1">
          <mxGeometry relative="1" as="geometry">
            <mxPoint x="650" y="2010" as="targetPoint" />
            <mxPoint x="2593" y="1290" as="sourcePoint" />
            <Array as="points">
              <mxPoint x="390" y="1290" />
              <mxPoint x="390" y="2330" />
              <mxPoint x="-1180" y="2330" />
              <mxPoint x="-1180" y="250" />
              <mxPoint x="-893" y="250" />
            </Array>
          </mxGeometry>
        </mxCell>
        <mxCell id="fBpSx0FqBBJXa8zHEMi_-36" style="edgeStyle=orthogonalEdgeStyle;rounded=0;orthogonalLoop=1;jettySize=auto;html=1;exitX=0;exitY=0.5;exitDx=0;exitDy=0;entryX=1;entryY=0.5;entryDx=0;entryDy=0;sketch=1;curveFitting=1;jiggle=2;" parent="WIyWlLk6GJQsqaUBKTNV-1" source="fBpSx0FqBBJXa8zHEMi_-32" target="fBpSx0FqBBJXa8zHEMi_-38" edge="1">
          <mxGeometry relative="1" as="geometry">
            <mxPoint x="2903" y="1290" as="targetPoint" />
          </mxGeometry>
        </mxCell>
        <mxCell id="fBpSx0FqBBJXa8zHEMi_-37" value="&lt;font face=&quot;Comic Sans MS&quot;&gt;Yes&lt;/font&gt;" style="edgeLabel;html=1;align=center;verticalAlign=middle;resizable=0;points=[];" parent="fBpSx0FqBBJXa8zHEMi_-36" vertex="1" connectable="0">
          <mxGeometry x="-0.0824" y="3" relative="1" as="geometry">
            <mxPoint as="offset" />
          </mxGeometry>
        </mxCell>
        <mxCell id="fBpSx0FqBBJXa8zHEMi_-32" value="是否允许早期暴露" style="rhombus;whiteSpace=wrap;html=1;sketch=1;curveFitting=1;jiggle=2;" parent="WIyWlLk6GJQsqaUBKTNV-1" vertex="1">
          <mxGeometry x="2988" y="1250" width="150" height="80" as="geometry" />
        </mxCell>
        <mxCell id="fBpSx0FqBBJXa8zHEMi_-40" style="edgeStyle=orthogonalEdgeStyle;rounded=0;orthogonalLoop=1;jettySize=auto;html=1;exitX=0.5;exitY=1;exitDx=0;exitDy=0;sketch=1;curveFitting=1;jiggle=2;entryX=0.5;entryY=0;entryDx=0;entryDy=0;" parent="WIyWlLk6GJQsqaUBKTNV-1" source="fBpSx0FqBBJXa8zHEMi_-38" target="fBpSx0FqBBJXa8zHEMi_-41" edge="1">
          <mxGeometry relative="1" as="geometry">
            <mxPoint x="2728" y="1410" as="targetPoint" />
          </mxGeometry>
        </mxCell>
        <mxCell id="fBpSx0FqBBJXa8zHEMi_-38" value="&lt;font style=&quot;border-color: var(--border-color); font-size: 14px;&quot; face=&quot;Comic Sans MS&quot;&gt;getSingleton&lt;/font&gt;&lt;font style=&quot;border-color: var(--border-color); font-size: 11px;&quot; face=&quot;Comic Sans MS&quot;&gt;(beanName, allowEarlyReference:false)&lt;br&gt;由于不允许获取早期引用，并且当前阶段未完成，所以获取到的对象为二级缓存或者一级缓存内的实例&lt;br&gt;&lt;/font&gt;" style="shape=process;whiteSpace=wrap;html=1;backgroundOutline=1;sketch=1;curveFitting=1;jiggle=2;" parent="WIyWlLk6GJQsqaUBKTNV-1" vertex="1">
          <mxGeometry x="2542" y="1260" width="371.25" height="60" as="geometry" />
        </mxCell>
        <mxCell id="fBpSx0FqBBJXa8zHEMi_-42" style="edgeStyle=orthogonalEdgeStyle;rounded=0;orthogonalLoop=1;jettySize=auto;html=1;exitX=0.5;exitY=1;exitDx=0;exitDy=0;sketch=1;curveFitting=1;jiggle=2;entryX=0.5;entryY=0;entryDx=0;entryDy=0;" parent="WIyWlLk6GJQsqaUBKTNV-1" source="fBpSx0FqBBJXa8zHEMi_-41" target="fBpSx0FqBBJXa8zHEMi_-45" edge="1">
          <mxGeometry relative="1" as="geometry">
            <mxPoint x="2727.625000000001" y="1505" as="targetPoint" />
          </mxGeometry>
        </mxCell>
        <mxCell id="fBpSx0FqBBJXa8zHEMi_-43" value="&lt;font face=&quot;Comic Sans MS&quot;&gt;Yes&lt;/font&gt;" style="edgeLabel;html=1;align=center;verticalAlign=middle;resizable=0;points=[];" parent="fBpSx0FqBBJXa8zHEMi_-42" vertex="1" connectable="0">
          <mxGeometry x="-0.0641" relative="1" as="geometry">
            <mxPoint as="offset" />
          </mxGeometry>
        </mxCell>
        <mxCell id="fBpSx0FqBBJXa8zHEMi_-41" value="引用是否存在" style="rhombus;whiteSpace=wrap;html=1;sketch=1;curveFitting=1;jiggle=2;" parent="WIyWlLk6GJQsqaUBKTNV-1" vertex="1">
          <mxGeometry x="2652.62" y="1360" width="150" height="80" as="geometry" />
        </mxCell>
        <mxCell id="fBpSx0FqBBJXa8zHEMi_-46" style="edgeStyle=orthogonalEdgeStyle;rounded=0;orthogonalLoop=1;jettySize=auto;html=1;exitX=0.5;exitY=1;exitDx=0;exitDy=0;sketch=1;curveFitting=1;jiggle=2;entryX=0.5;entryY=0;entryDx=0;entryDy=0;" parent="WIyWlLk6GJQsqaUBKTNV-1" source="fBpSx0FqBBJXa8zHEMi_-45" target="fBpSx0FqBBJXa8zHEMi_-53" edge="1">
          <mxGeometry relative="1" as="geometry">
            <mxPoint x="2728" y="1680" as="targetPoint" />
          </mxGeometry>
        </mxCell>
        <mxCell id="fBpSx0FqBBJXa8zHEMi_-52" value="&lt;font face=&quot;Comic Sans MS&quot;&gt;&amp;nbsp;No&lt;/font&gt;" style="edgeLabel;html=1;align=center;verticalAlign=middle;resizable=0;points=[];" parent="fBpSx0FqBBJXa8zHEMi_-46" vertex="1" connectable="0">
          <mxGeometry x="0.07" relative="1" as="geometry">
            <mxPoint as="offset" />
          </mxGeometry>
        </mxCell>
        <mxCell id="fBpSx0FqBBJXa8zHEMi_-50" style="edgeStyle=orthogonalEdgeStyle;rounded=0;orthogonalLoop=1;jettySize=auto;html=1;exitX=1;exitY=0.5;exitDx=0;exitDy=0;sketch=1;curveFitting=1;jiggle=2;entryX=0;entryY=0.5;entryDx=0;entryDy=0;" parent="WIyWlLk6GJQsqaUBKTNV-1" source="fBpSx0FqBBJXa8zHEMi_-45" target="fBpSx0FqBBJXa8zHEMi_-57" edge="1">
          <mxGeometry relative="1" as="geometry">
            <mxPoint x="3030" y="1563" as="targetPoint" />
          </mxGeometry>
        </mxCell>
        <mxCell id="fBpSx0FqBBJXa8zHEMi_-51" value="&lt;font face=&quot;Comic Sans MS&quot;&gt;Yes&lt;/font&gt;" style="edgeLabel;html=1;align=center;verticalAlign=middle;resizable=0;points=[];" parent="fBpSx0FqBBJXa8zHEMi_-50" vertex="1" connectable="0">
          <mxGeometry x="-0.1352" relative="1" as="geometry">
            <mxPoint y="1" as="offset" />
          </mxGeometry>
        </mxCell>
        <mxCell id="fBpSx0FqBBJXa8zHEMi_-45" value="&lt;font face=&quot;Comic Sans MS&quot; style=&quot;font-size: 14px;&quot;&gt;exposedObject 与 bean 是否相等&lt;/font&gt;" style="rhombus;whiteSpace=wrap;html=1;sketch=1;curveFitting=1;jiggle=2;" parent="WIyWlLk6GJQsqaUBKTNV-1" vertex="1">
          <mxGeometry x="2603.93" y="1500" width="247.37" height="125" as="geometry" />
        </mxCell>
        <mxCell id="fBpSx0FqBBJXa8zHEMi_-56" value="&lt;font face=&quot;Comic Sans MS&quot;&gt;Yes&lt;/font&gt;" style="edgeStyle=orthogonalEdgeStyle;rounded=0;orthogonalLoop=1;jettySize=auto;html=1;exitX=0.5;exitY=1;exitDx=0;exitDy=0;entryX=0.5;entryY=0;entryDx=0;entryDy=0;sketch=1;curveFitting=1;jiggle=2;" parent="WIyWlLk6GJQsqaUBKTNV-1" source="fBpSx0FqBBJXa8zHEMi_-53" target="fBpSx0FqBBJXa8zHEMi_-55" edge="1">
          <mxGeometry relative="1" as="geometry" />
        </mxCell>
        <mxCell id="fBpSx0FqBBJXa8zHEMi_-53" value="&lt;font face=&quot;Comic Sans MS&quot;&gt;&lt;span style=&quot;font-size: 14px;&quot;&gt;是否有创建完的 bean 依赖当前 bean&lt;/span&gt;&lt;/font&gt;" style="rhombus;whiteSpace=wrap;html=1;sketch=1;curveFitting=1;jiggle=2;" parent="WIyWlLk6GJQsqaUBKTNV-1" vertex="1">
          <mxGeometry x="2603.94" y="1690" width="247.37" height="125" as="geometry" />
        </mxCell>
        <mxCell id="fBpSx0FqBBJXa8zHEMi_-55" value="&lt;font face=&quot;Comic Sans MS&quot; style=&quot;font-size: 14px;&quot;&gt;BeanCurrentlyInCreationException&lt;/font&gt;" style="rounded=0;whiteSpace=wrap;html=1;sketch=1;curveFitting=1;jiggle=2;" parent="WIyWlLk6GJQsqaUBKTNV-1" vertex="1">
          <mxGeometry x="2597.62" y="1905" width="260" height="60" as="geometry" />
        </mxCell>
        <mxCell id="fBpSx0FqBBJXa8zHEMi_-58" style="edgeStyle=orthogonalEdgeStyle;rounded=0;orthogonalLoop=1;jettySize=auto;html=1;exitX=0.5;exitY=1;exitDx=0;exitDy=0;entryX=1;entryY=0.5;entryDx=0;entryDy=0;sketch=1;curveFitting=1;jiggle=2;" parent="WIyWlLk6GJQsqaUBKTNV-1" source="fBpSx0FqBBJXa8zHEMi_-57" target="Q4ZqcIHXgOIeblmxRWBi-83" edge="1">
          <mxGeometry relative="1" as="geometry">
            <mxPoint x="3940" y="1160" as="targetPoint" />
            <Array as="points">
              <mxPoint x="3128" y="2320" />
              <mxPoint x="4910" y="2320" />
              <mxPoint x="4910" y="120" />
            </Array>
          </mxGeometry>
        </mxCell>
        <mxCell id="fBpSx0FqBBJXa8zHEMi_-59" value="流程结束" style="edgeLabel;html=1;align=center;verticalAlign=middle;resizable=0;points=[];" parent="fBpSx0FqBBJXa8zHEMi_-58" vertex="1" connectable="0">
          <mxGeometry x="-0.8713" y="-5" relative="1" as="geometry">
            <mxPoint x="1" as="offset" />
          </mxGeometry>
        </mxCell>
        <mxCell id="fBpSx0FqBBJXa8zHEMi_-57" value="&lt;font face=&quot;Comic Sans MS&quot; style=&quot;font-size: 14px;&quot;&gt;registerDisposableBeanIfNecessary&lt;br&gt;注册销毁相关方法&lt;br&gt;&lt;/font&gt;" style="shape=process;whiteSpace=wrap;html=1;backgroundOutline=1;fillColor=#e1d5e7;strokeColor=#9673a6;sketch=1;curveFitting=1;jiggle=2;" parent="WIyWlLk6GJQsqaUBKTNV-1" vertex="1">
          <mxGeometry x="2948" y="1532.5" width="360" height="60" as="geometry" />
        </mxCell>
        <mxCell id="fBpSx0FqBBJXa8zHEMi_-63" style="edgeStyle=orthogonalEdgeStyle;rounded=0;orthogonalLoop=1;jettySize=auto;html=1;exitX=0.5;exitY=1;exitDx=0;exitDy=0;sketch=1;curveFitting=1;jiggle=2;" parent="WIyWlLk6GJQsqaUBKTNV-1" source="fBpSx0FqBBJXa8zHEMi_-61" target="fBpSx0FqBBJXa8zHEMi_-64" edge="1">
          <mxGeometry relative="1" as="geometry">
            <mxPoint x="3972" y="839" as="targetPoint" />
          </mxGeometry>
        </mxCell>
        <mxCell id="fBpSx0FqBBJXa8zHEMi_-61" value="&lt;div style=&quot;&quot;&gt;&lt;font style=&quot;font-size: 14px;&quot; face=&quot;Comic Sans MS&quot;&gt;populateBean&lt;/font&gt;&lt;font style=&quot;font-size: 11px;&quot; face=&quot;Comic Sans MS&quot;&gt;(String beanName, RootBeanDefinition mbd, @Nullable BeanWrapper bw)&lt;/font&gt;&lt;/div&gt;&lt;div style=&quot;font-size: 11px;&quot;&gt;&lt;br&gt;&lt;/div&gt;" style="rounded=1;whiteSpace=wrap;html=1;sketch=1;curveFitting=1;jiggle=2;fillColor=#f8cecc;strokeColor=#b85450;" parent="WIyWlLk6GJQsqaUBKTNV-1" vertex="1">
          <mxGeometry x="3735" y="719" width="475" height="60" as="geometry" />
        </mxCell>
        <mxCell id="fBpSx0FqBBJXa8zHEMi_-65" style="edgeStyle=orthogonalEdgeStyle;rounded=0;orthogonalLoop=1;jettySize=auto;html=1;exitX=1;exitY=0.5;exitDx=0;exitDy=0;sketch=1;curveFitting=1;jiggle=2;entryX=0;entryY=0.5;entryDx=0;entryDy=0;" parent="WIyWlLk6GJQsqaUBKTNV-1" source="fBpSx0FqBBJXa8zHEMi_-64" edge="1" target="6YjcLc2RfiKxpKUbYCRJ-7">
          <mxGeometry relative="1" as="geometry">
            <mxPoint x="4300" y="870.2857142857144" as="targetPoint" />
          </mxGeometry>
        </mxCell>
        <mxCell id="fBpSx0FqBBJXa8zHEMi_-66" style="edgeStyle=orthogonalEdgeStyle;rounded=0;orthogonalLoop=1;jettySize=auto;html=1;exitX=0.5;exitY=1;exitDx=0;exitDy=0;sketch=1;curveFitting=1;jiggle=2;entryX=0.5;entryY=0;entryDx=0;entryDy=0;" parent="WIyWlLk6GJQsqaUBKTNV-1" source="fBpSx0FqBBJXa8zHEMi_-64" target="fBpSx0FqBBJXa8zHEMi_-67" edge="1">
          <mxGeometry relative="1" as="geometry">
            <mxPoint x="3972" y="979" as="targetPoint" />
          </mxGeometry>
        </mxCell>
        <mxCell id="fBpSx0FqBBJXa8zHEMi_-64" value="&lt;font face=&quot;Comic Sans MS&quot; style=&quot;font-size: 14px;&quot;&gt;InstantiationAwareBeanPostProcessor&lt;/font&gt;" style="shape=process;whiteSpace=wrap;html=1;backgroundOutline=1;sketch=1;curveFitting=1;jiggle=2;fillColor=#e1d5e7;strokeColor=#9673a6;" parent="WIyWlLk6GJQsqaUBKTNV-1" vertex="1">
          <mxGeometry x="3808.5" y="840" width="328" height="60" as="geometry" />
        </mxCell>
        <mxCell id="fBpSx0FqBBJXa8zHEMi_-68" style="edgeStyle=orthogonalEdgeStyle;rounded=0;orthogonalLoop=1;jettySize=auto;html=1;exitX=0;exitY=0.5;exitDx=0;exitDy=0;sketch=1;curveFitting=1;jiggle=2;entryX=1;entryY=0.5;entryDx=0;entryDy=0;" parent="WIyWlLk6GJQsqaUBKTNV-1" source="fBpSx0FqBBJXa8zHEMi_-67" target="fBpSx0FqBBJXa8zHEMi_-74" edge="1">
          <mxGeometry relative="1" as="geometry">
            <mxPoint x="3790" y="1007.7826086956522" as="targetPoint" />
          </mxGeometry>
        </mxCell>
        <mxCell id="fBpSx0FqBBJXa8zHEMi_-70" value="&lt;font face=&quot;Comic Sans MS&quot;&gt;byName&lt;/font&gt;" style="edgeLabel;html=1;align=center;verticalAlign=middle;resizable=0;points=[];" parent="fBpSx0FqBBJXa8zHEMi_-68" vertex="1" connectable="0">
          <mxGeometry x="0.0596" relative="1" as="geometry">
            <mxPoint as="offset" />
          </mxGeometry>
        </mxCell>
        <mxCell id="fBpSx0FqBBJXa8zHEMi_-69" style="edgeStyle=orthogonalEdgeStyle;rounded=0;orthogonalLoop=1;jettySize=auto;html=1;exitX=1;exitY=0.5;exitDx=0;exitDy=0;sketch=1;curveFitting=1;jiggle=2;entryX=0;entryY=0.5;entryDx=0;entryDy=0;" parent="WIyWlLk6GJQsqaUBKTNV-1" source="fBpSx0FqBBJXa8zHEMi_-67" target="fBpSx0FqBBJXa8zHEMi_-75" edge="1">
          <mxGeometry relative="1" as="geometry">
            <mxPoint x="4180" y="1007.7826086956522" as="targetPoint" />
          </mxGeometry>
        </mxCell>
        <mxCell id="fBpSx0FqBBJXa8zHEMi_-71" value="&lt;font face=&quot;Comic Sans MS&quot;&gt;byType&lt;/font&gt;" style="edgeLabel;html=1;align=center;verticalAlign=middle;resizable=0;points=[];" parent="fBpSx0FqBBJXa8zHEMi_-69" vertex="1" connectable="0">
          <mxGeometry x="-0.185" relative="1" as="geometry">
            <mxPoint as="offset" />
          </mxGeometry>
        </mxCell>
        <mxCell id="fBpSx0FqBBJXa8zHEMi_-72" style="edgeStyle=orthogonalEdgeStyle;rounded=0;orthogonalLoop=1;jettySize=auto;html=1;exitX=0.5;exitY=1;exitDx=0;exitDy=0;sketch=1;curveFitting=1;jiggle=2;" parent="WIyWlLk6GJQsqaUBKTNV-1" source="fBpSx0FqBBJXa8zHEMi_-67" edge="1" target="fBpSx0FqBBJXa8zHEMi_-76">
          <mxGeometry relative="1" as="geometry">
            <mxPoint x="3972.695652173914" y="1109" as="targetPoint" />
          </mxGeometry>
        </mxCell>
        <mxCell id="fBpSx0FqBBJXa8zHEMi_-73" value="&lt;font face=&quot;Comic Sans MS&quot;&gt;默认：null&lt;/font&gt;" style="edgeLabel;html=1;align=center;verticalAlign=middle;resizable=0;points=[];" parent="fBpSx0FqBBJXa8zHEMi_-72" vertex="1" connectable="0">
          <mxGeometry x="-0.2179" relative="1" as="geometry">
            <mxPoint as="offset" />
          </mxGeometry>
        </mxCell>
        <mxCell id="fBpSx0FqBBJXa8zHEMi_-67" value="注入类型" style="rhombus;whiteSpace=wrap;html=1;sketch=1;curveFitting=1;jiggle=2;" parent="WIyWlLk6GJQsqaUBKTNV-1" vertex="1">
          <mxGeometry x="3882.5" y="958" width="180" height="100" as="geometry" />
        </mxCell>
        <mxCell id="6YjcLc2RfiKxpKUbYCRJ-0" style="edgeStyle=orthogonalEdgeStyle;rounded=0;orthogonalLoop=1;jettySize=auto;html=1;exitX=0.5;exitY=1;exitDx=0;exitDy=0;entryX=0.25;entryY=0;entryDx=0;entryDy=0;sketch=1;curveFitting=1;jiggle=2;" edge="1" parent="WIyWlLk6GJQsqaUBKTNV-1" source="fBpSx0FqBBJXa8zHEMi_-74" target="fBpSx0FqBBJXa8zHEMi_-76">
          <mxGeometry relative="1" as="geometry" />
        </mxCell>
        <mxCell id="fBpSx0FqBBJXa8zHEMi_-74" value="&lt;font face=&quot;Comic Sans MS&quot;&gt;autowireByName&lt;/font&gt;" style="rounded=1;whiteSpace=wrap;html=1;sketch=1;curveFitting=1;jiggle=2;" parent="WIyWlLk6GJQsqaUBKTNV-1" vertex="1">
          <mxGeometry x="3650" y="989" width="120" height="40" as="geometry" />
        </mxCell>
        <mxCell id="6YjcLc2RfiKxpKUbYCRJ-1" style="edgeStyle=orthogonalEdgeStyle;rounded=0;orthogonalLoop=1;jettySize=auto;html=1;exitX=0.5;exitY=1;exitDx=0;exitDy=0;entryX=0.75;entryY=0;entryDx=0;entryDy=0;sketch=1;curveFitting=1;jiggle=2;" edge="1" parent="WIyWlLk6GJQsqaUBKTNV-1" source="fBpSx0FqBBJXa8zHEMi_-75" target="fBpSx0FqBBJXa8zHEMi_-76">
          <mxGeometry relative="1" as="geometry" />
        </mxCell>
        <mxCell id="fBpSx0FqBBJXa8zHEMi_-75" value="&lt;font face=&quot;Comic Sans MS&quot;&gt;autowireByType&lt;/font&gt;" style="rounded=1;whiteSpace=wrap;html=1;sketch=1;curveFitting=1;jiggle=2;" parent="WIyWlLk6GJQsqaUBKTNV-1" vertex="1">
          <mxGeometry x="4200" y="988" width="120" height="40" as="geometry" />
        </mxCell>
        <mxCell id="6YjcLc2RfiKxpKUbYCRJ-3" style="edgeStyle=orthogonalEdgeStyle;rounded=0;orthogonalLoop=1;jettySize=auto;html=1;exitX=0.5;exitY=1;exitDx=0;exitDy=0;sketch=1;curveFitting=1;jiggle=2;" edge="1" parent="WIyWlLk6GJQsqaUBKTNV-1" source="fBpSx0FqBBJXa8zHEMi_-76" target="6YjcLc2RfiKxpKUbYCRJ-2">
          <mxGeometry relative="1" as="geometry" />
        </mxCell>
        <mxCell id="fBpSx0FqBBJXa8zHEMi_-76" value="&lt;font face=&quot;Comic Sans MS&quot;&gt;InstantiationAwareBeanPostProcessor 接口&amp;nbsp;&lt;/font&gt;postProcessProperties 回调" style="shape=process;whiteSpace=wrap;html=1;backgroundOutline=1;sketch=1;curveFitting=1;jiggle=2;fillColor=#e1d5e7;strokeColor=#9673a6;" parent="WIyWlLk6GJQsqaUBKTNV-1" vertex="1">
          <mxGeometry x="3830" y="1149" width="290" height="60" as="geometry" />
        </mxCell>
        <mxCell id="6YjcLc2RfiKxpKUbYCRJ-6" style="edgeStyle=orthogonalEdgeStyle;rounded=0;orthogonalLoop=1;jettySize=auto;html=1;exitX=0.5;exitY=1;exitDx=0;exitDy=0;sketch=1;curveFitting=1;jiggle=2;" edge="1" parent="WIyWlLk6GJQsqaUBKTNV-1" source="6YjcLc2RfiKxpKUbYCRJ-2" target="6YjcLc2RfiKxpKUbYCRJ-5">
          <mxGeometry relative="1" as="geometry" />
        </mxCell>
        <mxCell id="6YjcLc2RfiKxpKUbYCRJ-2" value="&lt;font face=&quot;Comic Sans MS&quot;&gt;InstantiationAwareBeanPostProcessor 接口&amp;nbsp;&lt;/font&gt;postProcessPropertyValues 回调" style="shape=process;whiteSpace=wrap;html=1;backgroundOutline=1;sketch=1;curveFitting=1;jiggle=2;fillColor=#e1d5e7;strokeColor=#9673a6;" vertex="1" parent="WIyWlLk6GJQsqaUBKTNV-1">
          <mxGeometry x="3830" y="1259" width="290" height="60" as="geometry" />
        </mxCell>
        <mxCell id="6YjcLc2RfiKxpKUbYCRJ-5" value="&lt;font face=&quot;Comic Sans MS&quot; style=&quot;font-size: 14px;&quot;&gt;applyPropertyValues&lt;/font&gt;" style="rounded=1;whiteSpace=wrap;html=1;sketch=1;curveFitting=1;jiggle=2;" vertex="1" parent="WIyWlLk6GJQsqaUBKTNV-1">
          <mxGeometry x="3875" y="1389" width="200" height="60" as="geometry" />
        </mxCell>
        <mxCell id="6YjcLc2RfiKxpKUbYCRJ-9" style="edgeStyle=orthogonalEdgeStyle;rounded=0;orthogonalLoop=1;jettySize=auto;html=1;exitX=0.5;exitY=1;exitDx=0;exitDy=0;entryX=0.5;entryY=0;entryDx=0;entryDy=0;sketch=1;curveFitting=1;jiggle=2;" edge="1" parent="WIyWlLk6GJQsqaUBKTNV-1" source="6YjcLc2RfiKxpKUbYCRJ-7" target="6YjcLc2RfiKxpKUbYCRJ-11">
          <mxGeometry relative="1" as="geometry">
            <mxPoint x="4675.304347826088" y="959" as="targetPoint" />
          </mxGeometry>
        </mxCell>
        <mxCell id="6YjcLc2RfiKxpKUbYCRJ-7" value="&lt;font style=&quot;font-size: 14px;&quot;&gt;&lt;font face=&quot;Comic Sans MS&quot; style=&quot;font-size: 14px;&quot;&gt;AutowiredAnnotationBeanPostProcessor 的&amp;nbsp;&lt;/font&gt;&lt;font style=&quot;font-size: 14px;&quot; face=&quot;Comic Sans MS&quot;&gt;postProcessProperties 方法&lt;/font&gt;&lt;/font&gt;" style="rounded=1;whiteSpace=wrap;html=1;sketch=1;curveFitting=1;jiggle=2;fillColor=#f8cecc;strokeColor=#b85450;" vertex="1" parent="WIyWlLk6GJQsqaUBKTNV-1">
          <mxGeometry x="4530" y="840" width="290" height="60" as="geometry" />
        </mxCell>
        <mxCell id="6YjcLc2RfiKxpKUbYCRJ-8" value="&lt;font face=&quot;Comic Sans MS&quot; style=&quot;font-size: 16px;&quot;&gt;AutowiredAnnotationBeanPostProcessor&lt;/font&gt;" style="text;html=1;strokeColor=none;fillColor=none;align=center;verticalAlign=middle;whiteSpace=wrap;rounded=0;" vertex="1" parent="WIyWlLk6GJQsqaUBKTNV-1">
          <mxGeometry x="4500" y="769" width="350" height="30" as="geometry" />
        </mxCell>
        <mxCell id="6YjcLc2RfiKxpKUbYCRJ-13" style="edgeStyle=orthogonalEdgeStyle;rounded=0;orthogonalLoop=1;jettySize=auto;html=1;exitX=0.5;exitY=1;exitDx=0;exitDy=0;sketch=1;curveFitting=1;jiggle=2;" edge="1" parent="WIyWlLk6GJQsqaUBKTNV-1" source="6YjcLc2RfiKxpKUbYCRJ-11" target="6YjcLc2RfiKxpKUbYCRJ-12">
          <mxGeometry relative="1" as="geometry" />
        </mxCell>
        <mxCell id="6YjcLc2RfiKxpKUbYCRJ-11" value="&lt;font face=&quot;Comic Sans MS&quot; style=&quot;font-size: 14px;&quot;&gt;inject&lt;/font&gt;" style="rounded=1;whiteSpace=wrap;html=1;sketch=1;curveFitting=1;jiggle=2;" vertex="1" parent="WIyWlLk6GJQsqaUBKTNV-1">
          <mxGeometry x="4625" y="959" width="100" height="45" as="geometry" />
        </mxCell>
        <mxCell id="6YjcLc2RfiKxpKUbYCRJ-16" style="edgeStyle=orthogonalEdgeStyle;rounded=0;orthogonalLoop=1;jettySize=auto;html=1;exitX=0.5;exitY=1;exitDx=0;exitDy=0;sketch=1;curveFitting=1;jiggle=2;startArrow=ERmandOne;startFill=0;entryX=0.5;entryY=0;entryDx=0;entryDy=0;jumpStyle=arc;jumpSize=12;" edge="1" parent="WIyWlLk6GJQsqaUBKTNV-1" source="6YjcLc2RfiKxpKUbYCRJ-12" target="WIyWlLk6GJQsqaUBKTNV-3">
          <mxGeometry relative="1" as="geometry">
            <mxPoint x="4415.04347826087" y="1100" as="targetPoint" />
            <Array as="points">
              <mxPoint x="4675" y="1260" />
              <mxPoint x="4860" y="1260" />
              <mxPoint x="4860" y="10" />
              <mxPoint x="565" y="10" />
            </Array>
          </mxGeometry>
        </mxCell>
        <mxCell id="6YjcLc2RfiKxpKUbYCRJ-12" value="&lt;font face=&quot;Comic Sans MS&quot; style=&quot;font-size: 14px;&quot;&gt;resolveFieldValue&lt;/font&gt;" style="rounded=1;whiteSpace=wrap;html=1;sketch=1;curveFitting=1;jiggle=2;" vertex="1" parent="WIyWlLk6GJQsqaUBKTNV-1">
          <mxGeometry x="4595" y="1039" width="160" height="51" as="geometry" />
        </mxCell>
        <mxCell id="6YjcLc2RfiKxpKUbYCRJ-21" style="edgeStyle=orthogonalEdgeStyle;rounded=0;orthogonalLoop=1;jettySize=auto;html=1;exitX=0.5;exitY=1;exitDx=0;exitDy=0;entryX=0.5;entryY=0;entryDx=0;entryDy=0;sketch=1;curveFitting=1;jiggle=2;" edge="1" parent="WIyWlLk6GJQsqaUBKTNV-1" source="6YjcLc2RfiKxpKUbYCRJ-19" target="6YjcLc2RfiKxpKUbYCRJ-20">
          <mxGeometry relative="1" as="geometry" />
        </mxCell>
        <mxCell id="6YjcLc2RfiKxpKUbYCRJ-19" value="&lt;font face=&quot;Comic Sans MS&quot; style=&quot;font-size: 14px;&quot;&gt;invokeAwareMethods&lt;/font&gt;" style="rounded=1;whiteSpace=wrap;html=1;sketch=1;curveFitting=1;jiggle=2;fillColor=#e1d5e7;strokeColor=#9673a6;" vertex="1" parent="WIyWlLk6GJQsqaUBKTNV-1">
          <mxGeometry x="3425" y="1190" width="190" height="60" as="geometry" />
        </mxCell>
        <mxCell id="6YjcLc2RfiKxpKUbYCRJ-22" style="edgeStyle=orthogonalEdgeStyle;rounded=0;orthogonalLoop=1;jettySize=auto;html=1;exitX=0.5;exitY=1;exitDx=0;exitDy=0;" edge="1" parent="WIyWlLk6GJQsqaUBKTNV-1" source="6YjcLc2RfiKxpKUbYCRJ-20" target="6YjcLc2RfiKxpKUbYCRJ-23">
          <mxGeometry relative="1" as="geometry">
            <mxPoint x="3520" y="1420" as="targetPoint" />
          </mxGeometry>
        </mxCell>
        <mxCell id="6YjcLc2RfiKxpKUbYCRJ-20" value="&lt;font style=&quot;font-size: 14px;&quot;&gt;&lt;font style=&quot;font-size: 14px;&quot; face=&quot;Comic Sans MS&quot;&gt;BeanPostProcessor 接口&amp;nbsp;&lt;/font&gt;&lt;font style=&quot;font-size: 14px;&quot; face=&quot;Comic Sans MS&quot;&gt;postProcessBeforeInitialization 回调&lt;/font&gt;&lt;/font&gt;" style="rounded=1;whiteSpace=wrap;html=1;sketch=1;curveFitting=1;jiggle=2;fillColor=#e1d5e7;strokeColor=#9673a6;" vertex="1" parent="WIyWlLk6GJQsqaUBKTNV-1">
          <mxGeometry x="3380" y="1300" width="280" height="60" as="geometry" />
        </mxCell>
        <mxCell id="6YjcLc2RfiKxpKUbYCRJ-25" style="edgeStyle=orthogonalEdgeStyle;rounded=0;orthogonalLoop=1;jettySize=auto;html=1;exitX=0.5;exitY=1;exitDx=0;exitDy=0;entryX=0.5;entryY=0;entryDx=0;entryDy=0;sketch=1;curveFitting=1;jiggle=2;" edge="1" parent="WIyWlLk6GJQsqaUBKTNV-1" source="6YjcLc2RfiKxpKUbYCRJ-23" target="6YjcLc2RfiKxpKUbYCRJ-24">
          <mxGeometry relative="1" as="geometry" />
        </mxCell>
        <mxCell id="6YjcLc2RfiKxpKUbYCRJ-23" value="&lt;font face=&quot;Comic Sans MS&quot; style=&quot;font-size: 14px;&quot;&gt;invokeInitMethods&lt;/font&gt;" style="rounded=1;whiteSpace=wrap;html=1;sketch=1;curveFitting=1;jiggle=2;fillColor=#e1d5e7;strokeColor=#9673a6;" vertex="1" parent="WIyWlLk6GJQsqaUBKTNV-1">
          <mxGeometry x="3422.5" y="1400" width="195" height="60" as="geometry" />
        </mxCell>
        <mxCell id="6YjcLc2RfiKxpKUbYCRJ-26" style="edgeStyle=orthogonalEdgeStyle;rounded=0;orthogonalLoop=1;jettySize=auto;html=1;exitX=0.5;exitY=1;exitDx=0;exitDy=0;entryX=1;entryY=0.75;entryDx=0;entryDy=0;sketch=1;curveFitting=1;jiggle=2;" edge="1" parent="WIyWlLk6GJQsqaUBKTNV-1" source="6YjcLc2RfiKxpKUbYCRJ-24" target="fBpSx0FqBBJXa8zHEMi_-29">
          <mxGeometry relative="1" as="geometry">
            <Array as="points">
              <mxPoint x="3520" y="1600" />
              <mxPoint x="3330" y="1600" />
              <mxPoint x="3330" y="1185" />
            </Array>
          </mxGeometry>
        </mxCell>
        <mxCell id="6YjcLc2RfiKxpKUbYCRJ-24" value="&lt;font style=&quot;font-size: 14px;&quot;&gt;&lt;font style=&quot;font-size: 14px;&quot; face=&quot;Comic Sans MS&quot;&gt;BeanPostProcessor 接口&amp;nbsp;&lt;/font&gt;&lt;font style=&quot;font-size: 14px;&quot; face=&quot;Comic Sans MS&quot;&gt;postProcessAfterInitialization&amp;nbsp;回调&lt;/font&gt;&lt;/font&gt;" style="rounded=1;whiteSpace=wrap;html=1;sketch=1;curveFitting=1;jiggle=2;fillColor=#e1d5e7;strokeColor=#9673a6;" vertex="1" parent="WIyWlLk6GJQsqaUBKTNV-1">
          <mxGeometry x="3380" y="1520" width="280" height="60" as="geometry" />
        </mxCell>
      </root>
    </mxGraphModel>
  </diagram>
</mxfile>
